<svg width="118" height="40" viewBox="0 0 118 40" fill="none" xmlns="http://www.w3.org/2000/svg">
<path d="M5.82526 5.15866C7.79092 3.94208 9.41163 2.96663 11.0269 1.93638C11.2177 1.7811 11.4397 1.66889 11.6779 1.60741C11.916 1.54593 12.1646 1.53664 12.4067 1.58017C14.5968 2.12818 16.9348 2.46794 19.0319 3.32283C20.5118 3.86977 21.7855 4.86318 22.6771 6.16584C23.5687 7.4685 24.0341 9.01611 24.009 10.5949C24.1294 17.719 24.0473 24.8157 24.0582 31.9288C24.1014 32.1664 24.0723 32.4114 23.9747 32.6323C23.877 32.8531 23.7154 33.0395 23.5107 33.1673C21.7422 34.2085 20.0119 35.31 18.0737 36.5047C18.0737 29.2162 18.0737 22.1743 18.0737 15.1324C18.0755 14.4332 18.0077 13.7356 17.8711 13.05C17.1648 9.60847 15.0239 7.48221 11.6839 6.57251C9.84966 6.04643 7.96613 5.66282 5.82526 5.15866Z" fill="white"/>
<path d="M18.2524 36.4259C16.2201 37.6936 14.6119 38.7089 12.9872 39.7187C12.7262 39.9145 12.4048 40.0135 12.0785 39.9986C9.32469 39.3291 6.38917 39.2029 3.91629 37.6662C2.75765 37.0144 1.79148 36.0704 1.11478 34.9289C0.438076 33.7874 0.0746581 32.4886 0.0610111 31.1628C-0.0381246 23.9954 0.0610099 16.828 0.0059345 9.65504C-0.0206189 9.35973 0.0423407 9.06328 0.186672 8.80401C0.331003 8.54474 0.550068 8.33458 0.815543 8.2007C2.13185 7.42688 3.44264 6.63659 4.7259 5.80789C5.77233 5.14384 6.04771 5.36336 6.0422 6.53232C6.01466 13.1564 6.0422 19.7751 6.0422 26.3992C6.0422 31.1299 8.54262 34.1538 13.202 35.1801C14.7441 35.5039 16.2367 35.9265 18.2524 36.4259Z" fill="white"/>
<path d="M5.43476 2.22473C5.44015 2.5022 5.38279 2.77768 5.26628 3.03385C5.14978 3.29003 4.97666 3.52135 4.75781 3.71327C4.53895 3.90519 4.2791 4.05356 3.9946 4.14904C3.71009 4.24452 3.4071 4.28505 3.10466 4.26808C2.63968 4.26769 2.18547 4.1399 1.80044 3.90116C1.4154 3.66241 1.11717 3.32361 0.944098 2.92836C0.771027 2.5331 0.731032 2.09946 0.82926 1.68322C0.927488 1.26697 1.15945 0.887164 1.49529 0.592647C1.83114 0.298129 2.25552 0.102375 2.71384 0.0305625C3.17216 -0.0412497 3.64346 0.014165 4.06711 0.18968C4.49076 0.365194 4.84739 0.652781 5.09111 1.01545C5.33484 1.37811 5.45452 1.79926 5.43476 2.22473Z" fill="white"/>
<path d="M41.9376 31.6954C35.0449 31.6954 32.3517 27.6162 32.3517 22.9576C32.3517 18.2989 35.0449 14.2197 41.9376 14.2197C48.8303 14.2197 51.5235 18.2989 51.5235 22.9576C51.5235 27.6162 48.8303 31.6954 41.9376 31.6954ZM41.9376 29.0996C45.772 29.0996 47.963 26.5964 47.963 22.9576C47.963 19.3187 45.772 16.8156 41.9376 16.8156C38.1033 16.8156 35.9122 19.3187 35.9122 22.9576C35.9122 26.5964 38.1033 29.0996 41.9376 29.0996Z" fill="white"/>
<path d="M53.9485 31.2319V14.6833H64.2647C68.4185 14.6833 69.7651 16.607 69.7651 19.1797C69.7651 21.3352 68.6011 22.6795 67.072 23.1662V23.2125C69.012 23.6297 69.4456 25.3449 69.4456 27.6858C69.4456 28.4738 69.4684 30.328 70.1303 31.2319H66.4329C66.1819 30.7684 66.0221 29.934 66.0221 28.7287C66.0221 26.3647 65.7026 24.6959 63.192 24.6959H57.372V31.2319H53.9485ZM57.372 22.1H63.2833C65.1776 22.1 66.2047 21.5206 66.2047 19.6664C66.2047 17.9513 65.0863 17.2791 63.2833 17.2791H57.372V22.1Z" fill="white"/>
<path d="M72.5594 31.2319V14.6833H75.9829V31.2319H72.5594Z" fill="white"/>
<path d="M86.9359 25.2521V14.6833H90.3594V26.2256C90.3594 28.5433 89.378 31.6954 84.2884 31.6954C78.0575 31.6954 77.9891 27.7089 77.9891 25.2753H81.4126C81.4126 26.9904 81.4354 29.0996 84.2427 29.0996C86.9131 29.0996 86.9359 26.9209 86.9359 25.2521Z" fill="white"/>
<path d="M93.689 31.2319V14.6833H97.1125V31.2319H93.689Z" fill="white"/>
<path d="M100.442 31.2319V14.6833H104.368L114.068 27.1063H114.114V14.6833H117.4V31.2319H113.543L103.775 18.8088H103.729V31.2319H100.442Z" fill="white"/>
</svg>
