<svg width="224" height="191" viewBox="0 0 224 191" fill="none" xmlns="http://www.w3.org/2000/svg">
<g clip-path="url(#clip0_1192_191)">
<path d="M204.264 79.0576V83.6979L77.7794 156V151.468L204.264 79.0576Z" fill="url(#paint0_linear_1192_191)"/>
<path d="M77.7794 156L19 122.007V117.475L77.7794 151.468V156Z" fill="url(#paint1_linear_1192_191)"/>
<path d="M145.485 43.6621L204.264 77.3312L77.7794 149.633L19 116.072L145.485 43.6621Z" fill="#4F4A4A"/>
<g opacity="0.29">
<path d="M25.4222 113.914L23.5718 112.943H51.6553L53.3969 113.914H25.4222Z" fill="#EFB635"/>
<path d="M29.7763 116.396L28.0347 115.425H56.0093L57.7509 116.396H29.7763Z" fill="#EFB635"/>
<path d="M34.1303 118.986L32.3887 117.907H60.3633L62.2138 118.986H34.1303Z" fill="#EFB635"/>
<path d="M38.5931 121.468L36.7427 120.497H64.8262L66.5678 121.468H38.5931Z" fill="#EFB635"/>
<path d="M42.9472 123.95L41.2056 122.979H69.1802L71.0307 123.95H42.9472Z" fill="#EFB635"/>
<path d="M47.3012 126.54L45.5596 125.461H73.6431L75.3847 126.54H47.3012Z" fill="#EFB635"/>
<path d="M51.7641 129.022L50.0225 128.051H77.9971L79.7387 129.022H51.7641Z" fill="#EFB635"/>
<path d="M56.1182 131.504L54.3766 130.533H82.3512L84.2017 131.504H56.1182Z" fill="#EFB635"/>
<path d="M60.5811 134.094L58.7306 133.015H86.8141L88.5557 134.094H60.5811Z" fill="#EFB635"/>
<path d="M64.9351 136.576L63.1935 135.605H91.1681L93.0186 136.576H64.9351Z" fill="#EFB635"/>
<path d="M88.9911 138.087V139.058H69.2891L67.5475 138.087H88.9911Z" fill="#EFB635"/>
</g>
<path opacity="0.4" d="M145.702 43.7695L155.608 49.381L140.477 58.0141H131.007L145.702 43.7695Z" fill="#443A3D"/>
<path d="M29.7762 118.662L156.152 46.3594V47.6543L29.7762 119.956V118.662Z" fill="#B7B2AA"/>
<path d="M19 116.072L29.7762 122.223V118.662L19 112.511V116.072Z" fill="#B7B2AA"/>
<path d="M29.7762 118.662L156.152 46.3596L145.376 40.2085L19 112.511L29.7762 118.662Z" fill="#E1DCD3"/>
<path d="M156.152 47.6543V49.8126L29.7762 122.223V119.956L156.152 47.6543Z" fill="#B7B2AA"/>
<path d="M111.958 125.028L104.557 120.712L106.516 119.633L114.571 124.165L113.265 125.028H111.958Z" fill="#B7B2AA"/>
<path d="M189.243 72.1514V71.2881L190.875 72.2593V79.4895L181.514 84.8852C180.534 85.4248 179.446 85.8564 178.249 85.9643L168.234 87.1514C168.017 87.1514 167.69 87.2593 167.472 87.3672L153.975 94.4895C153.431 94.8133 152.886 94.9212 152.342 94.9212H149.621L189.243 72.1514Z" fill="#B7B2AA"/>
<path d="M93.7805 56.6113V79.1653L93.454 79.8128V57.2588L93.7805 56.6113Z" fill="#8C877E"/>
<path d="M93.454 57.2588V79.8127L86.8141 83.5897V61.0358L93.454 57.2588Z" fill="#B7B2AA"/>
<path d="M86.814 61.0356V83.5896L85.8344 83.8054V61.2515L86.814 61.0356Z" fill="#CECCC8"/>
<path d="M85.8344 61.2516V83.8055L79.3033 80.0286V57.5825L85.8344 61.2516Z" fill="#E1DCD3"/>
<path d="M93.7805 56.6113V58.3379L93.454 58.8775V57.2588L93.7805 56.6113Z" fill="#A39F98"/>
<path d="M93.454 57.2588V58.8775L86.8141 62.7624V61.0358L93.454 57.2588Z" fill="#B7B2AA"/>
<path d="M86.814 61.0356V62.7623L85.8344 62.9781V61.2515L86.814 61.0356Z" fill="#C9C4BB"/>
<path d="M85.8344 61.2516V62.9782L79.3033 59.2012V57.5825L85.8344 61.2516Z" fill="#E1DCD3"/>
<path d="M93.7805 56.6114L93.4539 57.2589L86.814 61.0359L85.8344 61.2517L79.3033 57.5827L87.2494 52.9424L93.7805 56.6114Z" fill="#EEEAE5"/>
<path d="M87.6849 72.7982L86.8141 72.3665V62.0068L87.6849 62.4385V72.7982Z" fill="#443646"/>
<path d="M94.3248 69.0213L87.6849 72.7983V62.4386L94.3248 58.6616V69.0213Z" fill="#2D2430"/>
<path d="M88.1202 62.7623L93.8893 59.417V62.7623L88.1202 66.1076V62.7623Z" fill="#ACC5E2"/>
<path opacity="0.7" d="M93.7805 62.6544V59.5249L93.8893 59.417V62.7623L88.1202 66.1076V65.8918L93.7805 62.6544Z" fill="#8CA6BF"/>
<path opacity="0.3" d="M88.1202 69.3453V72.0432L93.9982 68.6978V66L88.1202 69.3453ZM93.8893 68.6978L88.2291 71.9353V69.4532L93.8893 66.2158V68.6978Z" fill="#E1DCD3"/>
<path d="M87.6849 62.4386L86.8141 62.007L93.454 58.1221L94.3248 58.6616L87.6849 62.4386Z" fill="#58465A"/>
<path d="M92.1478 68.6978C92.1478 68.6978 92.039 68.6978 91.9301 68.6978C91.8212 68.8057 91.7124 69.0215 91.7124 69.1294C91.7124 69.2373 91.7124 69.2373 91.8213 69.3452L91.9301 69.4532L92.2567 68.8057L92.1478 68.6978Z" fill="#D33737"/>
<path d="M91.9301 69.2371C91.9301 69.4529 92.0389 69.4529 92.1478 69.345C92.2566 69.2371 92.3655 69.0213 92.3655 68.9134C92.3655 68.8054 92.2566 68.6975 92.1478 68.8054C92.0389 68.9134 91.9301 69.1292 91.9301 69.2371Z" fill="#FF4343"/>
<path d="M92.1478 67.5107C92.1478 67.5107 92.039 67.5107 91.9301 67.5107C91.8212 67.6187 91.7124 67.8345 91.7124 67.9424C91.7124 68.0503 91.7124 68.0503 91.8213 68.1582L91.9301 68.2661L92.2567 67.6187L92.1478 67.5107Z" fill="#687C1D"/>
<path d="M91.9301 68.0501C91.9301 68.2659 92.0389 68.2659 92.1478 68.158C92.2566 68.0501 92.3655 67.8343 92.3655 67.7263C92.3655 67.6184 92.2566 67.5105 92.1478 67.6184C92.0389 67.6184 91.9301 67.8343 91.9301 68.0501Z" fill="#809E38"/>
<path d="M90.0796 69.0215L88.6646 69.8848V69.5611L90.0796 68.6978V69.0215Z" fill="#1E181E"/>
<path d="M93.1269 68.8057H93.0186V68.0503H93.1269V68.8057Z" fill="#7B7674"/>
<path d="M93.3451 68.6978L93.1274 68.8057V68.0503L93.3451 67.9424V68.6978Z" fill="#9A918E"/>
<path d="M93.1274 68.1582L93.2358 68.0503V68.6978H93.1274V68.1582Z" fill="#6D6968"/>
<path d="M93.1274 68.0503H93.0186L93.2363 67.9424H93.3451L93.1274 68.0503Z" fill="#B9B0AD"/>
<path d="M91.0593 69.8848L88.7734 71.2877V70.856L91.0593 69.561V69.8848Z" fill="#9A918E"/>
<path d="M90.8416 69.6689L91.0593 69.8848V69.561L90.8416 69.6689Z" fill="#7B7674"/>
<path d="M91.6035 62.3306C91.4947 62.3306 91.4947 62.3306 91.4947 62.3306L91.277 62.1147C91.277 62.1147 91.277 62.1147 91.1681 62.1147L90.6239 62.4385C90.6239 62.4385 90.515 62.4385 90.515 62.5464L90.4062 62.9781L90.2973 63.086C90.1885 63.086 90.1885 63.1939 90.1885 63.3018V63.5176C90.1885 63.5176 90.1885 63.6255 90.2973 63.5176V63.7335L90.4062 63.6255V63.4097L91.3858 62.8701V62.9781L91.4947 62.8701V62.6543L91.6035 62.5464V62.3306C91.7124 62.3306 91.7124 62.3306 91.6035 62.3306Z" fill="#FFFAF5"/>
<path d="M92.0389 61.4674L89.9707 62.6544C89.8619 62.6544 89.8619 62.7623 89.8619 62.8702V64.1652C89.8619 64.2731 89.9707 64.2731 89.9707 64.2731L92.0389 63.0861C92.1478 63.0861 92.1478 62.9782 92.1478 62.8702V61.5753C92.1478 61.3595 92.0389 61.3595 92.0389 61.4674ZM92.0389 62.7623C92.0389 62.8702 92.0389 62.8702 91.9301 62.8702L89.8619 64.0573C89.7531 64.0573 89.7531 64.0573 89.7531 64.0573V62.7623C89.7531 62.6544 89.7531 62.6544 89.8619 62.6544L91.9301 61.4674C92.0389 61.4674 92.0389 61.4674 92.0389 61.4674V62.7623Z" fill="#FFFAF5"/>
<g opacity="0.7">
<path d="M90.6238 65.46L91.0592 65.0283L91.4946 64.9204V65.0283L91.0592 65.1362L90.6238 65.46ZM91.0592 64.9204L91.7123 64.8125V64.7046C91.7123 64.7046 91.0592 64.8125 91.0592 64.9204ZM90.515 65.46L91.0592 65.0283L91.6035 64.9204V64.8125L91.0592 64.9204L90.515 65.46Z" fill="#4F4A4A"/>
<path d="M91.0592 66.7549L91.4946 66.4312H91.6035L91.0592 66.8628V66.7549Z" fill="#4F4A4A"/>
<path d="M91.7123 66.4312L91.8212 66.5391L91.0592 67.0786L91.7123 66.4312Z" fill="#4F4A4A"/>
<path d="M91.6035 66.4312H91.7123L91.0592 66.9707L91.6035 66.4312Z" fill="#4F4A4A"/>
<path d="M90.4061 65.8916L90.2972 66.4312H90.1884L90.4061 65.8916Z" fill="#4F4A4A"/>
<path d="M90.1884 65.7837L89.9707 66.647L90.1884 65.7837Z" fill="#4F4A4A"/>
<path d="M90.2973 65.8916L90.0796 66.5391L90.2973 65.8916Z" fill="#4F4A4A"/>
<path d="M91.93 65.46L91.8212 65.1362V65.0283C91.8212 65.0283 91.93 65.3521 91.93 65.46ZM92.2566 65.2442L92.0389 64.7046V64.8125L92.2566 65.2442L91.93 65.9996C92.0389 66.1075 92.2566 65.2442 92.2566 65.2442ZM92.1477 65.3521L91.93 64.9204V65.0283L92.1477 65.3521Z" fill="#4F4A4A"/>
<path opacity="0.7" d="M90.5149 67.2945H90.2972C90.2972 67.2945 90.2972 67.2945 90.2972 67.1866L90.4061 66.9708C90.4061 66.8628 90.5149 66.7549 90.5149 66.647C90.5149 66.5391 90.6238 66.4312 90.6238 66.4312C90.6238 66.3233 90.8415 66.1074 90.8415 66.1074L90.9503 65.5679C90.9503 65.46 91.0592 65.46 91.0592 65.46L91.6034 65.2441C91.7123 65.2441 91.7123 65.2441 91.7123 65.3521L91.4946 66.4312C91.4946 66.5391 91.3857 66.5391 91.3857 66.5391C91.3857 66.5391 91.2769 66.647 91.168 66.647C91.168 66.647 91.168 66.7549 91.0592 66.7549C91.0592 66.7549 91.0592 66.7549 91.0592 66.8628C91.0592 66.8628 91.0592 66.9708 90.9503 66.9708C90.9503 66.9708 90.9503 66.9708 90.8415 66.9708H90.7326C90.7326 67.0787 90.6238 67.1866 90.5149 67.2945C90.6238 67.2945 90.6238 67.2945 90.5149 67.2945ZM90.9503 66.3233C90.8415 66.4312 90.8415 66.5391 90.8415 66.5391C90.8415 66.647 90.7326 66.647 90.7326 66.647C90.7326 66.647 90.6238 66.647 90.6238 66.5391L90.7326 66.1074C90.6238 66.2154 90.6238 66.3233 90.5149 66.3233L90.4061 66.5391C90.4061 66.647 90.4061 66.7549 90.2972 66.8628C90.2972 66.8628 90.2972 66.8628 90.2972 66.9708L90.1884 67.1866L90.5149 67.2945C90.5149 67.1866 90.7326 66.9708 90.8415 66.7549C90.9503 66.5391 91.0592 66.4312 90.9503 66.3233C91.168 66.3233 91.168 66.2154 90.9503 66.3233C91.0592 66.2154 91.0592 66.2154 90.9503 66.3233ZM90.9503 66.7549L90.8415 66.8628C90.8415 66.8628 90.9503 66.8628 90.9503 66.7549ZM90.9503 66.5391C90.9503 66.647 90.9503 66.647 90.9503 66.5391C91.0592 66.647 91.0592 66.647 90.9503 66.5391ZM90.8415 65.5679L90.6238 66.647C90.6238 66.647 90.6238 66.7549 90.7326 66.647C90.7326 66.647 90.7326 66.647 90.8415 66.5391C90.8415 66.5391 90.9503 66.4312 90.9503 66.3233C90.9503 66.3233 90.9503 66.2154 91.0592 66.2154C91.0592 66.2154 91.0592 66.2154 91.168 66.2154C91.168 66.2154 91.2769 66.3233 91.168 66.3233C91.168 66.3233 91.0592 66.4312 91.0592 66.5391C91.0592 66.5391 91.2769 66.4312 91.3857 66.4312C91.3857 66.4312 91.4946 66.4312 91.4946 66.3233L91.7123 65.2441C91.4946 65.2441 90.9503 65.46 90.8415 65.5679C90.9503 65.46 90.8415 65.46 90.8415 65.5679Z" fill="#4F4A4A"/>
</g>
<path d="M77.7794 148.338L204.264 76.0356V77.3306L77.7794 149.633V148.338Z" fill="#B7B2AA"/>
<path d="M67.0032 145.748L77.7794 151.899V148.338L67.0032 142.187V145.748Z" fill="#B7B2AA"/>
<path d="M77.7794 148.338L204.264 76.0358L193.379 69.7769L67.0032 142.187L77.7794 148.338Z" fill="#E1DCD3"/>
<path d="M204.264 77.3311V79.4893L77.7794 151.899V149.633L204.264 77.3311Z" fill="#B7B2AA"/>
<path opacity="0.37" fill-rule="evenodd" clip-rule="evenodd" d="M72.3369 84.6689C69.8333 84.6689 67.7651 85.7481 67.7651 87.043C67.7651 88.338 69.8333 89.4171 72.3369 89.4171C74.8404 89.4171 76.9086 88.338 76.9086 87.043C76.9086 85.7481 74.9493 84.6689 72.3369 84.6689Z" fill="#575756"/>
<path fill-rule="evenodd" clip-rule="evenodd" d="M72.3369 70.3164C72.6635 70.3164 72.99 70.6401 72.99 70.9639V86.8272C72.7723 87.2589 71.7927 87.2589 71.6838 86.8272V70.9639C71.6838 70.6401 71.9015 70.3164 72.3369 70.3164Z" fill="#575756"/>
<path fill-rule="evenodd" clip-rule="evenodd" d="M71.0308 75.8201V69.4532L75.7113 66.7554V73.1223L71.0308 75.8201Z" fill="#BA7300"/>
<path fill-rule="evenodd" clip-rule="evenodd" d="M69.3979 68.5898L71.0307 69.4532V75.8201L69.3979 74.8488V68.5898Z" fill="#EDB400"/>
<path fill-rule="evenodd" clip-rule="evenodd" d="M69.3979 68.5899L71.0307 69.4532L75.7113 66.7554L74.0785 65.8921L69.3979 68.5899Z" fill="#FFD817"/>
<path fill-rule="evenodd" clip-rule="evenodd" d="M73.3166 70.2088C73.8608 69.8851 74.2962 70.1009 74.2962 70.7484C74.2962 71.3958 73.8608 72.1512 73.3166 72.475C72.7723 72.7987 72.3369 72.5829 72.3369 71.9354C72.3369 71.2879 72.7723 70.5325 73.3166 70.2088Z" fill="#443646"/>
<path fill-rule="evenodd" clip-rule="evenodd" d="M73.3166 70.5324C73.6431 70.3166 73.9697 70.5324 73.9697 70.9641C73.9697 71.3957 73.6431 71.9353 73.3166 72.1511C72.99 72.367 72.6635 72.1511 72.6635 71.7195C72.6635 71.2878 72.99 70.7483 73.3166 70.5324Z" fill="url(#paint2_linear_1192_191)"/>
<path d="M164.969 126.755L144.396 129.885L149.839 118.122L153.431 120.173L166.384 112.834L174.221 117.367L161.377 124.705L164.969 126.755Z" fill="#EDB400"/>
<path d="M120.884 57.7988C120.993 57.7988 121.102 57.7988 121.211 57.7988L123.714 59.2017C123.932 59.3096 124.15 59.7413 124.15 60.065V61.36C124.15 61.4679 124.041 61.5758 124.041 61.6837L123.823 61.7916C123.932 61.7916 123.932 61.6837 123.932 61.4679V60.1729C123.932 59.8492 123.714 59.5254 123.497 59.3096L120.993 57.9067C120.884 57.7988 120.775 57.7988 120.667 57.9067L120.884 57.7988Z" fill="#494443"/>
<path d="M120.993 58.0146C120.775 57.9067 120.558 58.0146 120.558 58.3383V59.6333C120.558 59.957 120.775 60.2808 120.993 60.4966L123.497 61.8995C123.714 62.0074 123.932 61.8995 123.932 61.5757V60.2808C123.932 59.957 123.714 59.6333 123.497 59.4175L120.993 58.0146Z" fill="#383534"/>
<path d="M121.864 60.0653C121.973 59.7415 122.517 60.0653 122.408 60.389C122.408 60.389 121.973 61.1444 122.19 61.8998C122.299 62.4394 122.735 62.871 123.279 63.1947C123.388 63.3027 123.497 63.4106 123.388 63.6264C123.17 63.9501 122.952 63.9501 122.952 63.8422C122.19 63.4106 121.755 62.7631 121.646 62.0077C121.32 60.9286 121.864 60.0653 121.864 60.0653Z" fill="#302C26"/>
<path d="M157.743 50.2418L177.915 61.7886L181.943 54.873L161.77 43.3263L157.743 50.2418Z" fill="#A3C247"/>
<path d="M157.548 50.524L177.72 62.0708L181.748 55.1553L161.575 43.6085L157.548 50.524Z" fill="#AA7755"/>
<path d="M114.789 69.1295C117.292 71.5036 145.376 79.8129 145.376 79.8129L178.031 58.3381L163.772 50.1367L159.962 36.7554L160.071 36.6475V36.3237C159.962 36 159.635 35.8921 159.309 36.1079L129.81 52.9424C129.266 53.2662 128.722 53.9136 128.286 54.5611L121.429 63.9496L114.789 69.1295ZM123.714 62.7626L129.701 54.1295L136.559 50.3525L134.055 57.0431L123.714 62.7626Z" fill="#AA7755"/>
<path d="M156.152 54.8849C156.37 53.6978 156.479 52.5108 156.696 51.2158C161.377 53.9137 168.126 57.6906 172.371 60.6043L171.391 67.8345L155.39 58.6619C155.608 57.3669 155.934 56.0719 156.152 54.8849Z" fill="#AA7755"/>
<path d="M155.608 51.1081L152.342 47.8707L160.724 45.0649L180.643 56.5038L174.221 61.8995L155.608 51.1081Z" fill="#EAB88C"/>
<path d="M160.615 74.0935L167.255 70.2086V66.9712L160.615 70.8561V74.0935Z" fill="#2D2B2A"/>
<path d="M144.614 64.9205L160.615 74.0932V70.8558L144.614 61.6831V64.9205Z" fill="#383534"/>
<path d="M160.615 70.8559L167.255 66.971L151.254 57.9062L144.614 61.6832L160.615 70.8559Z" fill="#2D2430"/>
<path d="M143.634 61.3595C143.634 61.2516 143.743 61.0358 143.743 60.9279V60.82C143.852 60.6041 143.961 60.3883 144.069 60.2804C144.396 59.9567 144.831 59.6329 145.376 59.3092C145.702 59.0934 146.029 58.9854 146.464 58.7696C147.444 58.23 150.492 56.6113 151.362 56.1797C151.471 56.1797 151.58 56.1797 151.58 56.1797L167.799 65.4603L159.962 71.6113L143.743 62.3308C143.634 62.2229 143.525 61.8991 143.634 61.3595Z" fill="url(#paint3_linear_1192_191)"/>
<path d="M159.853 70.7481C159.853 70.6402 159.962 70.4243 159.962 70.3164C160.288 69.561 160.833 69.1294 161.703 68.6977C162.03 68.4819 162.356 68.374 162.792 68.1581C163.771 67.6186 166.819 65.9999 167.69 65.5682C167.908 65.4603 168.017 65.5682 168.017 65.784C168.125 67.079 167.472 67.7265 166.71 68.1581C166.057 68.4819 164.642 69.1294 163.989 69.561C162.792 70.3164 161.703 71.0718 161.05 71.6114C160.941 71.7193 160.941 71.7193 160.832 71.7193C160.179 71.9351 159.635 71.5035 159.853 70.7481Z" fill="#C18C68"/>
<path d="M150.056 53.9136C151.254 47.7626 150.601 47.6546 150.927 46.4676C150.927 46.3597 150.927 46.2518 151.036 46.2518C151.145 46.1438 151.254 45.928 151.363 45.8201C151.471 45.7122 151.58 45.6043 151.689 45.4964C151.907 45.3884 152.124 45.2805 152.342 45.3884L168.561 54.669L166.166 66.2158L149.947 56.9352L149.839 56.8273C149.839 56.0719 149.839 55.1007 150.056 53.9136Z" fill="url(#paint4_linear_1192_191)"/>
<path d="M166.275 63.1942C167.472 57.0431 166.819 56.9352 167.146 55.7482C167.255 55.3165 167.581 54.9928 167.908 54.7769C168.343 54.5611 168.67 54.5611 168.779 55.1007C168.888 57.151 168.343 60.6043 168.234 62.9784C168.126 63.7338 168.017 64.4892 168.126 65.1366C168.126 65.2446 168.017 65.3525 167.908 65.4604L166.384 66.3237C166.275 66.4316 166.166 66.3237 166.166 66.2158C166.057 65.4604 166.057 64.3812 166.275 63.1942Z" fill="#C18C68"/>
<path d="M138.736 76.6833L145.376 72.9064V69.6689L138.736 73.4459V76.6833Z" fill="#2D2B2A"/>
<path d="M131.443 72.5826L138.736 76.6833V73.4459L131.443 69.3452V72.5826Z" fill="#383534"/>
<path d="M138.736 73.4461L145.376 69.6691L138.192 65.4604L131.443 69.3453L138.736 73.4461Z" fill="#2D2430"/>
<path d="M130.463 69.0217C130.463 68.9137 130.572 68.6979 130.572 68.59V68.4821C130.681 68.2663 130.79 68.0504 130.899 67.9425C131.225 67.6188 131.661 67.295 132.205 66.9713C132.531 66.7555 132.858 66.6476 133.293 66.4317C134.273 65.8922 137.321 64.2735 138.192 63.8418C138.3 63.8418 138.409 63.8418 138.409 63.8418L145.92 68.1583L138.083 74.3094L130.572 69.9929C130.463 69.777 130.354 69.5612 130.463 69.0217Z" fill="url(#paint5_linear_1192_191)"/>
<path d="M137.974 73.3384C137.974 73.2305 138.083 73.0147 138.083 72.9067C138.409 72.1514 138.954 71.7197 139.824 71.288C140.151 71.0722 140.477 70.9643 140.913 70.7485C141.893 70.2089 144.94 68.5902 145.811 68.1585C146.029 68.0506 146.138 68.1585 146.138 68.3744C146.247 69.6693 145.593 70.3168 144.832 70.7485C144.178 71.0722 142.763 71.7197 142.11 72.1514C140.913 72.9067 139.824 73.6621 139.171 74.2017C139.062 74.3096 139.062 74.3096 138.954 74.3096C138.3 74.5255 137.756 74.2017 137.974 73.3384Z" fill="#C18C68"/>
<path d="M136.885 61.4678C138.083 55.3167 137.43 55.2088 137.756 54.0218C137.756 53.9139 137.756 53.806 137.865 53.806C137.974 53.698 138.083 53.4822 138.192 53.3743C138.3 53.2664 138.409 53.1585 138.518 53.0506C138.736 52.9426 138.954 52.8347 139.171 52.9426L146.682 57.2592L144.178 68.806L136.668 64.4894L136.559 64.3815C136.668 63.734 136.668 62.7628 136.885 61.4678Z" fill="url(#paint6_linear_1192_191)"/>
<path d="M144.396 65.7845C145.593 59.6334 144.94 59.5255 145.267 58.3385C145.376 57.9068 145.702 57.5831 146.029 57.3673C146.464 57.1514 146.791 57.1514 146.9 57.691C147.008 59.7414 146.464 63.1946 146.355 65.5687C146.247 66.3241 146.138 67.0795 146.247 67.727C146.247 67.8349 146.138 67.9428 146.029 68.0507L144.505 68.914C144.396 69.0219 144.287 68.914 144.287 68.8061C144.178 68.0507 144.178 67.0795 144.396 65.7845Z" fill="#C18C68"/>
<path d="M143.416 56.6119L140.26 54.7774C140.26 54.7774 140.804 54.2378 141.457 54.2378L144.831 56.1802C144.723 56.0723 144.505 56.0723 144.178 56.3961C143.634 56.7198 143.416 56.6119 143.416 56.6119Z" fill="#C18C68"/>
<path d="M140.26 52.7269C140.26 52.6189 140.26 52.6189 140.26 52.511C140.26 52.4031 140.369 52.4031 140.369 52.2952C140.477 52.1873 140.477 52.1873 140.586 52.0794C140.804 51.9715 141.022 51.8635 141.239 51.9715L144.178 53.6981L143.199 56.288L140.26 54.5614C140.151 54.5614 140.151 54.3456 140.151 54.2376C140.26 53.806 140.26 53.1585 140.26 52.7269Z" fill="url(#paint7_linear_1192_191)"/>
<path d="M143.199 54.4532C143.199 54.2374 143.416 54.0216 143.634 53.9137C143.852 53.8058 144.178 53.6978 144.396 53.9137C144.614 54.2374 144.723 54.9928 144.723 55.4245C144.723 55.6403 144.614 55.8561 144.396 55.964L143.634 56.3957C143.416 56.5036 143.199 56.3957 143.199 56.0719C143.199 55.5324 143.199 54.8849 143.199 54.4532Z" fill="#C18C68"/>
<path d="M136.994 80.3529L150.492 72.691L148.859 69.8853L136.994 76.6838V80.3529Z" fill="#C18C68"/>
<path d="M136.994 76.6839L148.859 69.8853L146.138 68.2666L134.164 75.0652L136.994 76.6839Z" fill="#F4C698"/>
<path opacity="0.4" d="M145.702 69.0219L141.239 71.5039C141.022 71.6118 141.022 71.8276 141.239 71.8276L143.199 73.0147C143.416 73.1226 143.634 73.1226 143.852 73.0147L148.315 70.5326C148.532 70.4247 148.532 70.2089 148.315 70.2089L146.355 69.0219C146.138 68.9139 145.92 68.9139 145.702 69.0219ZM145.811 69.0219C145.92 68.9139 146.138 68.9139 146.247 69.0219L148.206 70.2089C148.315 70.3168 148.315 70.4247 148.206 70.4247L143.743 72.9067C143.634 73.0147 143.416 73.0147 143.308 72.9067L141.348 71.7197C141.239 71.6118 141.239 71.5039 141.348 71.5039L145.811 69.0219Z" fill="#C18C68"/>
<path d="M149.403 82.8342L156.043 78.9493V75.7119L149.403 79.5968V82.8342Z" fill="#2D2B2A"/>
<path d="M142.11 78.7335L149.403 82.8342V79.5968L142.11 75.3882V78.7335Z" fill="#383534"/>
<path d="M149.403 79.5969L156.043 75.712L148.859 71.6113L142.11 75.3883L149.403 79.5969Z" fill="#2D2430"/>
<path d="M141.131 75.1725C141.131 75.0646 141.239 74.8488 141.239 74.7409V74.633C141.348 74.4171 141.457 74.2013 141.566 74.0934C141.892 73.7697 142.328 73.4459 142.872 73.1222C143.199 72.9063 143.525 72.7984 143.961 72.5826C144.94 72.043 147.988 70.4243 148.859 69.9927C148.968 69.9927 149.077 69.9927 149.077 69.9927L156.587 74.3092L148.75 80.4603L141.239 76.1438C141.131 75.9279 141.022 75.6042 141.131 75.1725Z" fill="url(#paint8_linear_1192_191)"/>
<path d="M148.641 79.4893C148.641 79.3814 148.75 79.1655 148.75 79.0576C149.077 78.3022 149.621 77.8706 150.492 77.4389C150.818 77.2231 151.145 77.1152 151.58 76.8994C152.56 76.3598 155.608 74.7411 156.479 74.3094C156.696 74.2015 156.805 74.3094 156.805 74.5253C156.914 75.8202 156.261 76.4677 155.499 76.8994C154.846 77.2231 153.431 77.8706 152.778 78.3022C151.58 79.0576 150.492 79.813 149.839 80.3526C149.73 80.2447 149.621 80.2447 149.621 80.2447C148.968 80.6763 148.424 80.2447 148.641 79.4893Z" fill="#C18C68"/>
<path d="M147.553 67.6187C148.75 61.4676 148.097 61.3597 148.424 60.1727C148.424 60.0648 148.424 59.9568 148.532 59.9568C148.641 59.8489 148.75 59.6331 148.859 59.5252C148.968 59.4173 149.077 59.3094 149.186 59.2014C149.403 59.0935 149.621 58.9856 149.839 59.0935L157.349 63.4101L154.846 74.8489L147.335 70.5324L147.226 70.4245C147.335 69.8849 147.335 68.8058 147.553 67.6187Z" fill="url(#paint9_linear_1192_191)"/>
<path d="M155.063 71.9354C156.261 65.7843 155.608 65.6764 155.934 64.4894C156.043 64.0577 156.37 63.734 156.696 63.5181C157.132 63.3023 157.458 63.3023 157.567 63.8419C157.676 65.8922 157.132 69.3455 157.023 71.7196C156.914 72.475 156.805 73.2304 156.914 73.8779C156.914 73.9858 156.805 74.0937 156.696 74.2016L155.172 75.0649C155.063 75.1728 154.955 75.0649 154.955 74.957C154.846 74.2016 154.846 73.1225 155.063 71.9354Z" fill="#C18C68"/>
<path d="M154.084 62.7628L150.927 60.9282C150.927 60.9282 151.471 60.3887 152.124 60.3887L155.499 62.3311C155.39 62.2232 155.172 62.2232 154.846 62.5469C154.302 62.8707 154.084 62.7628 154.084 62.7628Z" fill="#C18C68"/>
<path d="M150.927 58.8777C150.927 58.7698 150.927 58.7698 150.927 58.6619C150.927 58.554 151.036 58.554 151.036 58.4461C151.145 58.3382 151.145 58.3382 151.254 58.2303C151.471 58.1223 151.689 58.0144 151.907 58.1223L154.846 59.849L153.866 62.4389L150.927 60.7123C150.818 60.7123 150.818 60.4964 150.818 60.3885C150.927 59.849 150.927 59.2015 150.927 58.8777Z" fill="url(#paint10_linear_1192_191)"/>
<path d="M153.866 60.6041C153.866 60.3883 154.084 60.1725 154.301 60.0645C154.519 59.9566 154.846 59.8487 155.063 60.0645C155.281 60.3883 155.39 61.1437 155.39 61.5753C155.39 61.7912 155.281 62.007 155.063 62.1149L154.301 62.5466C154.084 62.6545 153.866 62.5466 153.866 62.2228C153.866 61.5753 153.866 60.9279 153.866 60.6041Z" fill="#C18C68"/>
<path d="M127.524 63.9498C127.851 65.4606 129.483 67.1872 131.116 67.7268C132.749 68.2663 133.946 67.5109 133.62 66.0001C133.293 64.4893 131.661 62.7627 130.028 62.2232C128.286 61.6836 127.198 62.439 127.524 63.9498ZM132.422 64.4893L130.572 65.0289L129.81 62.6548C129.919 62.6548 130.028 62.6548 130.137 62.7627C130.899 62.9786 131.769 63.626 132.422 64.4893ZM129.375 62.5469L130.354 65.3527L132.749 64.7052C132.967 65.1368 133.184 65.4606 133.293 65.8922C133.511 67.1872 132.531 67.8347 131.116 67.2951C129.701 66.7555 128.286 65.3527 128.068 64.0577C127.633 63.0865 128.286 62.439 129.375 62.5469Z" fill="#3A3835"/>
<path d="M122.844 64.2733L124.476 63.5179C124.585 63.41 124.803 63.41 125.021 63.5179C131.334 65.7841 137.756 69.8849 142.219 73.8777C141.675 74.6331 141.457 75.4964 141.239 76.3597C141.022 76.2518 140.695 76.2518 140.477 76.3597C140.477 76.3597 126.545 71.6115 123.17 65.3525C122.626 64.705 122.626 64.705 122.844 64.2733Z" fill="#FFD3AB"/>
<path d="M126.109 63.9496C126.653 66.1079 129.919 67.7266 133.62 67.7266C133.62 67.7266 132.531 65.5683 130.681 64.4892C128.068 62.7626 126.109 63.9496 126.109 63.9496Z" fill="#FFD3AB"/>
<path opacity="0.8" d="M129.484 54.1294L146.138 63.8416L142.437 78.7337L121.211 65.5682L129.484 54.1294Z" fill="#3D2E33"/>
<path opacity="0.6" d="M129.484 54.1294L130.463 54.7769L132.858 72.7985L121.211 65.5682L129.484 54.1294Z" fill="#68525B"/>
<path d="M169.649 65.8922L177.704 70.5325C177.596 68.9137 177.051 67.7267 176.072 67.1871L169.649 63.5181V65.8922Z" fill="#231D26"/>
<path d="M131.878 85.856L141.348 91.3596C141.239 89.7409 140.695 88.5539 139.716 88.0143L131.878 83.4819V85.856Z" fill="#231D26"/>
<path d="M144.94 64.8128L128.939 55.6402C128.613 55.4243 128.504 55.5323 128.286 55.7481L121.537 65.1366L121.32 63.7337L128.395 54.4531L146.682 64.9207L143.634 76.4675L142.219 76.5754L145.593 65.3524C145.593 65.2445 145.158 65.0287 144.94 64.8128Z" fill="#7F9733"/>
<path d="M159.853 36.0001C159.744 35.8922 159.526 35.8922 159.309 36.108L129.919 52.9425C129.375 53.2663 128.83 53.9138 128.395 54.5612L146.682 65.0289C147.009 64.2735 147.553 63.7339 148.206 63.4102L177.704 46.5756C177.922 46.4677 178.14 46.4677 178.249 46.4677L159.853 36.0001Z" fill="url(#paint11_linear_1192_191)"/>
<path d="M129.157 92.2231C129.592 91.144 130.245 90.1728 131.007 89.3095C131.661 88.5541 132.314 88.0145 133.076 87.5828C134.382 86.8275 135.579 86.7195 136.45 87.2591L139.062 88.7699C138.192 88.2303 136.994 88.3382 135.688 89.0936C134.926 89.5253 134.273 90.1728 133.62 90.8203C132.858 91.6836 132.205 92.6548 131.769 93.7339C131.225 94.921 130.899 96.2159 130.899 97.2951C130.899 98.8059 131.443 99.885 132.314 100.317L129.701 98.8059C128.83 98.2663 128.286 97.2951 128.286 95.7843C128.286 94.7052 128.613 93.4102 129.157 92.2231Z" fill="#231D26"/>
<path d="M135.688 89.0938C138.3 87.5831 140.477 88.7701 140.477 91.7917C140.477 94.8133 138.3 98.4823 135.688 99.9931C133.076 101.504 130.899 100.317 130.899 97.2953C130.899 94.3816 133.076 90.6046 135.688 89.0938Z" fill="#2D2430"/>
<path d="M135.688 90.7121C137.647 89.633 139.171 90.4963 139.171 92.6546C139.171 94.8129 137.647 97.5107 135.688 98.5898C133.729 99.669 132.205 98.8057 132.205 96.6474C132.314 94.3812 133.837 91.7913 135.688 90.7121Z" fill="#231D26"/>
<path d="M137.321 90.4969H137.212L136.341 90.6048C136.341 90.6048 136.123 90.6048 136.232 90.7127C136.885 90.9285 137.321 91.4681 137.321 92.4393C137.321 94.058 136.232 96.1084 134.817 96.8638C133.946 97.4033 133.185 97.4033 132.749 96.8638C132.64 96.7559 132.858 97.0796 132.858 97.0796L133.185 97.6192C133.729 98.4825 134.817 98.6983 136.015 97.9429C137.647 96.9717 139.062 94.5976 138.954 92.6551C138.736 91.2523 138.3 90.3889 137.321 90.4969Z" fill="#C6C0B3"/>
<path d="M138.954 92.547C138.954 94.5974 137.539 97.0794 135.797 98.1585C134.055 99.2376 132.531 98.4823 132.531 96.4319C132.531 94.3815 133.946 91.8995 135.688 90.8204C137.43 89.7412 138.954 90.4966 138.954 92.547ZM135.688 91.0362C134.055 92.0074 132.64 94.3815 132.749 96.324C132.749 98.2664 134.164 99.0218 135.906 97.9427C137.647 96.8636 138.954 94.5974 138.845 92.6549C138.736 90.7125 137.321 89.9571 135.688 91.0362Z" fill="#E8DFD1"/>
<mask id="mask0_1192_191" style="mask-type:luminance" maskUnits="userSpaceOnUse" x="132" y="90" width="7" height="9">
<path d="M135.688 91.0363C137.321 90.065 138.736 90.8204 138.845 92.655C138.845 94.5974 137.538 96.9715 135.906 97.9427C134.273 98.914 132.858 98.1586 132.749 96.324C132.64 94.3816 133.946 92.0075 135.688 91.0363Z" fill="white"/>
</mask>
<g mask="url(#mask0_1192_191)">
<path d="M134.926 90.9285C133.402 91.8997 132.205 94.058 132.314 95.7846C132.422 97.5112 133.62 98.1587 135.144 97.2954C136.668 96.3242 137.865 94.1659 137.756 92.4393C137.756 90.6047 136.45 89.9572 134.926 90.9285Z" fill="#A5A095"/>
<path d="M135.253 91.8995C134.164 92.547 133.293 94.1657 133.293 95.4607C133.293 96.7556 134.273 97.1873 135.362 96.5398C136.45 95.8923 137.321 94.2736 137.321 92.9787C137.321 91.6837 136.341 91.252 135.253 91.8995Z" fill="#E8DFD1"/>
<path d="M137.321 92.7631C137.321 91.4681 136.45 90.8207 135.361 91.2523C135.253 91.2523 135.144 91.3602 134.926 91.4681C134.164 91.8998 133.62 92.6552 133.184 93.5185C132.858 94.166 132.749 94.8135 132.749 95.4609C132.749 96.8638 133.838 97.5113 135.144 96.648L135.361 96.5401C134.273 97.1876 133.293 96.7559 133.293 95.4609C133.293 94.9214 133.402 94.2739 133.729 93.7343C134.055 92.9789 134.599 92.3315 135.253 91.8998C135.361 91.7919 135.47 91.7919 135.579 91.684C136.559 91.2523 137.321 91.7919 137.321 92.9789V92.7631Z" fill="#C6C0B3"/>
</g>
<path d="M165.513 71.5039C165.949 70.4248 166.602 69.4535 167.364 68.5902C168.017 67.8348 168.67 67.2953 169.432 66.8636C170.738 66.1082 171.935 66.0003 172.806 66.5399L175.419 68.0507C174.548 67.5111 173.35 67.619 172.044 68.3744C171.282 68.8061 170.629 69.4535 169.976 70.101C169.214 70.9643 168.561 71.9355 168.126 73.0147C167.581 74.2017 167.255 75.4967 167.255 76.5758C167.255 78.0866 167.799 79.1658 168.67 79.5974L166.057 78.0866C165.187 77.5471 164.642 76.5758 164.642 75.065C164.642 73.878 164.969 72.6909 165.513 71.5039Z" fill="#231D26"/>
<path d="M172.044 68.2667C174.657 66.7559 176.834 67.943 176.834 70.9645C176.834 73.9861 174.657 77.6552 172.044 79.166C169.432 80.6768 167.255 79.4897 167.255 76.4681C167.255 73.5545 169.432 69.8854 172.044 68.2667Z" fill="#2D2430"/>
<path d="M172.044 69.885C174.003 68.8059 175.527 69.6692 175.527 71.8274C175.527 73.9857 174.003 76.6836 172.044 77.7627C170.085 78.8418 168.561 77.9785 168.561 75.8202C168.67 73.5541 170.194 70.9641 172.044 69.885Z" fill="#231D26"/>
<path d="M173.677 69.6694H173.568L172.697 69.7773C172.697 69.7773 172.48 69.7773 172.588 69.8853C173.242 70.1011 173.677 70.6407 173.677 71.6119C173.677 73.2306 172.588 75.2809 171.173 76.0363C170.303 76.5759 169.541 76.5759 169.105 76.0363C168.996 75.9284 169.214 76.2522 169.214 76.2522L169.541 76.7917C170.085 77.655 171.173 77.8709 172.371 77.1155C174.003 76.1443 175.419 73.7702 175.31 71.8277C175.092 70.4248 174.657 69.6694 173.677 69.6694Z" fill="#C6C0B3"/>
<path d="M175.31 71.7199C175.31 73.7702 173.895 76.2522 172.153 77.3314C170.411 78.4105 168.887 77.6551 168.887 75.6047C168.887 73.5544 170.303 71.0724 172.044 69.9932C173.786 68.9141 175.31 69.6695 175.31 71.7199ZM172.044 70.2091C170.411 71.1803 168.996 73.5544 169.105 75.4968C169.214 77.4393 170.52 78.1947 172.262 77.1155C173.895 76.1443 175.31 73.7702 175.201 71.8278C175.092 69.8853 173.677 69.1299 172.044 70.2091Z" fill="#E8DFD1"/>
<mask id="mask1_1192_191" style="mask-type:luminance" maskUnits="userSpaceOnUse" x="169" y="69" width="7" height="9">
<path d="M172.044 70.2091C173.677 69.2379 175.092 69.9933 175.201 71.8278C175.201 73.7703 173.895 76.1444 172.262 77.1156C170.629 78.0868 169.214 77.3314 169.105 75.4969C168.996 73.6623 170.303 71.1803 172.044 70.2091Z" fill="white"/>
</mask>
<g mask="url(#mask1_1192_191)">
<path d="M171.282 70.1012C169.758 71.0724 168.561 73.2307 168.67 74.9573C168.779 76.6839 169.976 77.3314 171.5 76.4681C173.024 75.4968 174.221 73.3386 174.112 71.612C174.112 69.8853 172.806 69.1299 171.282 70.1012Z" fill="#A5A095"/>
<path d="M171.609 71.0724C170.52 71.7199 169.65 73.3386 169.65 74.6335C169.65 75.9285 170.629 76.3601 171.718 75.7127C172.806 75.0652 173.677 73.4465 173.677 72.1515C173.677 70.8565 172.697 70.4249 171.609 71.0724Z" fill="#E8DFD1"/>
<path d="M173.677 71.9355C173.677 70.6405 172.806 69.993 171.718 70.4247C171.609 70.4247 171.5 70.5326 171.282 70.6405C170.52 71.0722 169.976 71.8276 169.541 72.6909C169.214 73.3383 169.105 73.9858 169.105 74.6333C169.105 76.0362 170.194 76.6837 171.5 75.8204L171.718 75.7124C170.629 76.3599 169.649 75.9283 169.649 74.6333C169.649 74.0937 169.758 73.4463 170.085 72.9067C170.411 72.1513 170.956 71.5038 171.609 71.0722C171.718 70.9642 171.827 70.9642 171.935 70.8563C172.915 70.4247 173.677 70.9642 173.677 72.1513V71.9355Z" fill="#C6C0B3"/>
</g>
<path d="M105.645 78.9498L105.863 83.698C112.829 90.7123 125.238 94.8131 126.327 95.3526C126.871 95.5685 130.028 97.8346 130.028 97.8346C130.028 96.5397 130.463 95.0289 131.116 93.7339C132.096 91.4677 133.838 89.4174 135.688 88.3382C138.736 86.6116 141.239 87.9066 141.348 91.3598L166.275 77.0073C166.384 73.4462 168.888 69.2375 171.935 67.5109C174.983 65.7843 177.487 67.0793 177.596 70.5325L181.405 68.3742L182.494 66.2159V55.7483L181.95 54.9929L181.514 54.7771L168.452 62.2231L167.255 53.698L178.249 47.439L178.358 47.3311V47.0073C178.249 46.6836 177.922 46.5757 177.596 46.7915L148.097 63.626C147.553 63.9498 147.009 64.5972 146.573 65.2447L143.525 76.7915C134.817 73.7699 127.415 69.5613 121.32 63.9498L107.713 73.7699C107.496 73.8778 107.169 74.2016 107.06 74.5253L106.734 75.1728C106.734 75.1728 107.713 77.7627 106.298 78.1944C105.972 78.0864 105.645 78.4102 105.645 78.9498ZM157.023 69.0217L155.825 60.0649L166.275 54.1296L167.472 63.0864L157.023 69.0217ZM145.376 75.6044L148.315 64.3814L154.737 60.7123L155.934 69.6692L145.376 75.6044Z" fill="url(#paint12_linear_1192_191)"/>
<path opacity="0.3" d="M182.603 60.7124V66.216L181.514 68.3743L177.704 70.5325C177.595 67.1872 175.092 65.7843 172.044 67.511C168.996 69.2376 166.493 73.4462 166.384 77.0074L141.457 91.3599C141.348 88.2304 139.171 86.8275 136.341 88.1225L182.603 60.7124Z" fill="#809837"/>
<path opacity="0.3" d="M136.232 88.0146L134.273 89.3096C134.708 88.878 135.253 88.5542 135.688 88.2305C135.906 88.2305 136.123 88.1226 136.232 88.0146Z" fill="#809837"/>
<path d="M121.755 64.489C126.98 69.1293 134.708 73.4459 142.546 76.4675L145.92 65.6761C146.029 65.4603 145.92 65.1365 145.593 65.0286L128.939 55.3164C128.613 55.1006 128.286 55.2085 128.068 55.5322L121.755 64.489ZM142.219 75.2804C134.708 72.4747 127.524 68.266 122.626 64.0574L128.504 55.9639C128.504 55.856 128.613 55.856 128.722 55.856H128.83L145.158 65.2444C145.267 65.2444 145.267 65.4603 145.267 65.4603L142.219 75.2804Z" fill="#302C26"/>
<path d="M121.211 63.8418C126.871 69.2375 134.382 73.4461 143.417 76.6835L127.742 85.2087C125.13 86.9353 106.734 75.9281 108.367 74.0936L121.211 63.8418Z" fill="url(#paint13_linear_1192_191)"/>
<g opacity="0.3">
<path d="M143.961 77.5467L145.158 88.7697L165.84 76.7913V76.6834C165.513 73.3381 166.384 70.6402 168.452 68.2661V65.5683L168.343 63.9496L166.71 53.374L147.77 64.1654C147.77 63.9496 143.961 77.4388 143.961 77.5467ZM156.914 72.151L156.805 70.2086C156.805 70.2086 155.281 59.9568 155.172 59.9568L166.493 53.5898L168.017 63.7337L168.126 65.3524V67.9424C166.057 70.4244 165.187 73.1222 165.513 76.4676L156.914 81.4316V72.151ZM144.287 77.5467L147.988 64.2733L155.063 60.2805L156.587 70.4244L156.696 72.3668V81.8632L145.376 88.3381L144.287 77.5467Z" fill="#7F9733"/>
</g>
<path d="M106.843 75.0649H106.734C105.972 75.6045 106.189 78.6261 106.625 79.1657C107.822 80.3527 109.128 81.3239 109.999 81.8635C110.326 82.0793 110.761 81.8635 110.87 81.4318C110.87 80.7844 110.979 79.8131 110.979 79.0577C110.979 78.5182 110.761 78.0865 110.326 77.7628C109.237 77.3311 107.713 76.1441 106.843 75.0649Z" fill="#ECEDEF"/>
<path d="M128.504 90.2806C127.742 90.4964 126.653 90.4964 125.565 90.1727C124.15 89.741 122.191 88.8777 121.32 88.4461C120.993 88.3381 120.884 88.0144 120.993 87.6907C121.211 87.1511 121.537 86.3957 121.755 85.7482C121.973 85.3166 122.517 85.1007 122.953 85.2087C123.606 85.5324 124.368 85.7482 125.021 85.964C125.674 86.1799 126.436 86.5036 127.198 86.6115C127.307 86.6115 127.96 86.6115 128.504 86.3957C129.701 86.7194 128.939 90.1727 128.504 90.2806Z" fill="#ECEDEF"/>
<path opacity="0.8" d="M127.089 86.7197C127.198 86.7197 127.96 86.7197 128.395 86.5039C128.504 86.5039 130.028 87.691 128.83 90.2809C128.286 90.4967 127.524 90.6046 126.653 90.4967C127.089 89.2017 127.307 87.9068 127.089 86.7197Z" fill="#ECEDEF"/>
<path d="M128.395 86.5037C128.613 86.3958 128.83 86.5037 129.048 86.6116L129.701 87.367C130.028 87.6907 130.028 88.1224 129.919 88.4461C129.81 88.9857 129.592 89.5253 129.375 89.9569C129.266 90.0648 128.939 90.2807 128.395 90.3886C129.048 88.7699 128.395 86.5037 128.395 86.5037Z" fill="#D16A0D"/>
<path opacity="0.8" d="M156.043 69.6692L145.485 75.6044L148.424 64.3814L154.846 60.7124L156.043 69.6692ZM166.275 54.1296L155.825 60.0649L157.023 69.0217L167.472 63.0865L166.275 54.1296ZM168.561 62.5469L181.623 54.6692L178.358 47.2231L167.364 53.4821L168.561 62.5469Z" fill="#3D2E33"/>
<path d="M168.452 62.115L168.561 62.5466L181.95 54.8848L181.514 54.6689L168.452 62.115Z" fill="#A3C247"/>
<path d="M167.472 63.0862L166.928 62.9783L165.84 54.4531L166.275 54.1294L167.472 63.0862Z" fill="#7F9733"/>
<path d="M154.737 60.7119L156.043 69.6688L155.499 69.4529L154.302 60.9277L154.737 60.7119Z" fill="#7F9733"/>
<path d="M167.472 63.0864L157.023 69.0217L156.914 68.59L166.928 62.9785L167.472 63.0864Z" fill="#A3C247"/>
<path d="M145.593 75.0646L155.499 69.4531L156.043 69.669L145.376 75.6042L145.593 75.0646Z" fill="#A3C247"/>
<path d="M129.266 98.2662L130.028 97.8346V97.7266C130.137 96.2158 130.572 94.5971 131.334 93.1943C134.6 86.7194 141.131 85.5324 141.348 91.2518H141.457C143.199 84.6691 133.184 83.8058 130.137 92.8705C130.028 93.1943 129.266 98.2662 129.266 98.2662Z" fill="#90AB3F"/>
<path d="M177.922 69.4533C177.922 69.5612 177.813 70.4245 177.596 70.4245C176.942 62.6547 166.602 68.482 166.275 76.8993C166.166 76.8993 166.166 76.8993 166.166 76.7914C165.949 76.1439 165.731 74.8489 165.949 73.554C167.472 64.0576 178.684 62.9784 177.922 69.4533Z" fill="#90AB3F"/>
<path d="M130.463 91.8993C130.463 91.8993 127.742 93.1943 125.565 92.6547C120.667 91.5756 107.06 83.0504 105.754 81.6475L105.645 79.3813C105.645 79.3813 104.666 80.5684 104.448 81.4317L105.21 86.3957C105.21 86.6116 105.319 86.8274 105.428 87.0432C107.496 89.4173 122.299 97.6188 125.456 98.4821C126.436 98.6979 127.742 99.0216 129.484 98.0504C129.592 95.4605 130.354 93.6259 131.225 92.4389L130.681 92.2231L130.463 91.8993Z" fill="#90AB3F"/>
<path d="M105.754 79.4893L105.863 81.7554C107.169 83.1583 120.776 91.6835 125.674 92.7626C127.851 93.1943 130.572 92.0072 130.572 92.0072L131.334 92.5468C130.899 93.0864 127.524 94.4893 125.021 93.8418C118.816 92.0072 109.89 86.072 107.278 84.3454C104.666 82.6188 104.557 81.6475 104.557 81.6475C104.774 80.6763 105.754 79.4893 105.754 79.4893Z" fill="url(#paint14_linear_1192_191)"/>
<path d="M148.097 73.4463C148.206 73.4463 148.315 73.4463 148.424 73.4463L150.927 74.8492C151.145 74.9571 151.363 75.3887 151.363 75.7125V77.0074C151.363 77.1154 151.254 77.2233 151.254 77.3312L151.036 77.4391C151.145 77.4391 151.145 77.3312 151.145 77.1154V75.8204C151.145 75.4966 150.927 75.1729 150.71 74.9571L148.206 73.5542C148.097 73.4463 147.988 73.4463 147.879 73.5542L148.097 73.4463Z" fill="#494443"/>
<path d="M148.206 73.5541C147.988 73.4462 147.771 73.5541 147.771 73.8779V75.1728C147.771 75.4966 147.988 75.8203 148.206 76.0362L150.709 77.439C150.927 77.5469 151.145 77.439 151.145 77.1153V75.8203C151.145 75.4966 150.927 75.1728 150.709 74.957L148.206 73.5541Z" fill="#383534"/>
<path d="M145.92 75.9283C147.335 77.1153 148.968 75.4966 148.968 75.3887C149.185 75.1729 149.621 75.4966 149.403 75.8204C148.859 76.252 147.988 76.8995 147.008 76.8995C146.464 76.8995 145.92 76.7916 145.376 76.36C145.049 76.1441 145.593 75.7125 145.92 75.9283Z" fill="#302C26"/>
<path d="M182.603 62.5469L176.616 66.0002C176.616 66.0002 177.16 66.4318 177.269 66.7555C178.031 67.7268 178.14 69.4534 177.704 70.5325C177.704 70.5325 181.514 68.4822 182.603 67.7268C182.82 67.6189 182.929 67.403 182.929 67.1872C183.147 66.1081 183.474 62.8707 183.474 62.3311C183.474 61.7915 182.603 61.3599 182.603 61.3599V62.5469Z" fill="#90AB3F"/>
<path d="M177.269 66.7555C177.051 66.5397 176.616 66.0002 176.616 66.0002L182.603 62.5469V61.3599C182.603 61.3599 183.474 61.7915 183.474 62.3311C183.474 62.439 183.474 62.7627 183.365 63.1944C183.256 63.3023 177.378 66.8635 177.269 66.7555Z" fill="#A3C446"/>
<path d="M154.628 74.4172L155.281 74.0935C155.499 73.9856 155.717 73.6618 155.717 73.446V72.6906C155.717 72.4748 154.302 73.3381 154.302 73.5539V74.3093C154.193 74.5251 154.41 74.5251 154.628 74.4172Z" fill="#7F9733"/>
<path d="M154.084 73.9855L155.717 73.0143C155.934 72.9063 156.043 72.6905 156.043 72.4747C156.043 72.2589 155.934 72.2589 155.717 72.3668L154.084 73.338C153.866 73.4459 153.757 73.6617 153.757 73.8776C153.757 73.9855 153.975 74.0934 154.084 73.9855Z" fill="#E8DFD1"/>
<path d="M166.166 67.8347L166.819 67.511C167.037 67.403 167.255 67.0793 167.255 66.8635V66.1081C167.255 65.8923 165.84 66.7556 165.84 66.9714V67.7268C165.731 67.9426 165.948 67.9426 166.166 67.8347Z" fill="#7F9733"/>
<path d="M165.622 67.403L167.255 66.4317C167.472 66.3238 167.581 66.108 167.581 65.8922C167.581 65.6763 167.472 65.6763 167.255 65.7843L165.622 66.7555C165.404 66.8634 165.295 67.0792 165.295 67.2951C165.295 67.403 165.404 67.5109 165.622 67.403Z" fill="#E8DFD1"/>
<path opacity="0.4" d="M182.603 61.5758L181.514 62.2233H181.405H181.296C181.188 62.2233 181.188 62.1153 181.188 62.0074V59.4175C181.188 59.2017 181.296 58.9859 181.514 58.8779L181.841 58.6621C181.95 58.9859 182.167 59.2017 182.494 59.2017C182.603 59.0938 182.603 61.5758 182.603 61.5758Z" fill="#ACABA9"/>
<path d="M181.296 59.2017C181.296 58.9859 181.405 58.878 181.514 58.7701L182.494 58.1226V57.2593C182.712 57.2593 182.82 57.3672 182.82 57.583C182.82 57.583 182.82 60.1729 182.82 60.7125C182.82 60.9283 182.712 61.0363 182.494 61.1442L181.188 61.8996V59.2017H181.296Z" fill="#9E081E"/>
<path opacity="0.6" d="M132.749 52.6188C134.708 52.2951 136.668 51.6476 137.539 51.2159L159.635 38.6979C160.288 38.2663 159.853 38.1584 158.547 38.2663L159.2 37.5109C161.595 37.0792 162.683 37.2951 161.812 37.8346L137.43 51.7555C136.45 52.2951 134.6 52.9425 132.205 53.3742L132.749 52.6188ZM147.335 62.1152C149.73 61.6835 151.58 61.0361 152.56 60.4965L176.943 46.5756C177.922 46.0361 176.725 45.9281 174.33 46.2519L173.677 47.0073C174.874 46.8994 175.419 47.0073 174.765 47.4389L152.669 59.9569C151.907 60.3886 149.948 61.0361 147.879 61.3598L147.335 62.1152Z" fill="#7F9733"/>
<path d="M173.242 46.252L172.915 46.0361C173.133 46.144 173.35 46.4678 173.35 46.7915L173.677 47.0074C173.677 46.5757 173.459 46.3599 173.242 46.252Z" fill="#C6C0B3"/>
<path d="M148.75 58.9858L173.133 45.065C173.568 44.7412 174.003 44.7412 174.33 44.9571L174.657 45.1729C174.33 44.9571 173.895 45.065 173.459 45.2808L149.077 59.2017C148.859 59.3096 148.532 59.5254 148.315 59.8491L147.988 59.6333C148.206 59.3096 148.424 59.0937 148.75 58.9858Z" fill="#E8DFD1"/>
<path d="M147.335 60.6045C147.553 60.2808 147.771 59.8491 147.988 59.5254L148.315 59.7412C148.097 60.065 147.77 60.3887 147.662 60.8204C147.444 61.252 147.335 61.6837 147.335 62.1153L147.009 61.8995C147.009 61.4678 147.117 61.0362 147.335 60.6045Z" fill="#C6C0B3"/>
<path d="M149.077 59.2015C148.097 59.7411 147.335 61.036 147.335 62.1152L148.75 61.2519C148.859 60.2806 149.512 59.3094 150.274 58.8778L172.153 46.3598C172.915 45.9281 173.568 46.2519 173.677 47.0073L175.092 46.1439C175.092 45.0648 174.33 44.6332 173.35 45.1727L149.077 59.2015Z" fill="#A5A095"/>
<path d="M158.002 37.5107L157.676 37.2949C157.894 37.4028 158.111 37.7266 158.111 38.0503L158.438 38.2661C158.438 37.8345 158.22 37.6187 158.002 37.5107Z" fill="#C6C0B3"/>
<path d="M133.402 50.2446L157.785 36.3238C158.22 36 158.655 36 158.982 36.2158L159.309 36.4317C158.982 36.2158 158.547 36.3238 158.111 36.5396L133.729 50.4605C133.511 50.5684 133.184 50.7842 132.967 51.1079L132.64 50.8921C132.858 50.5684 133.184 50.3525 133.402 50.2446Z" fill="#E8DFD1"/>
<path d="M131.987 51.8633C132.205 51.5396 132.422 51.1079 132.64 50.7842L132.967 51C132.749 51.3237 132.422 51.6475 132.314 52.0791C132.096 52.5108 131.987 52.9425 131.987 53.3741L131.661 53.1583C131.661 52.7266 131.769 52.295 131.987 51.8633Z" fill="#C6C0B3"/>
<path d="M133.729 50.4603C132.749 50.9999 131.987 52.2948 131.987 53.374L133.402 52.5106C133.511 51.5394 134.164 50.5682 134.926 50.1365L156.805 37.6186C157.567 37.1869 158.22 37.5106 158.329 38.266L159.744 37.4027C159.744 36.3236 158.982 35.8919 158.002 36.4315L133.729 50.4603Z" fill="#A5A095"/>
<path d="M112.067 79.1655C114.353 81.108 119.36 83.6979 120.884 84.4533C121.102 84.5612 121.211 84.8849 121.102 85.1008L119.36 89.2015C119.252 89.4173 118.925 89.5252 118.707 89.4173L111.305 85.2087C111.088 85.1008 110.979 84.777 110.979 84.5612L111.414 79.3813C111.523 79.0576 111.85 78.9497 112.067 79.1655Z" fill="#2D2430"/>
<path d="M139.716 61.8995L137.321 62.2233C136.994 62.2233 136.668 62.2233 136.45 62.1154C135.797 61.7916 134.708 61.1441 133.946 60.6046C133.729 60.3887 133.511 60.1729 133.511 59.8492L133.402 58.2305C135.688 59.8492 136.015 60.065 139.716 61.8995Z" fill="#302C26"/>
<path d="M110.87 89.6334L115.986 92.6549V90.7125L110.87 87.6909V89.6334Z" fill="#EEEAE5"/>
<g style="mix-blend-mode:color">
<path d="M183.365 62.0073C183.147 61.6835 182.603 61.3598 182.603 61.3598V61.2519C182.82 61.144 182.929 61.0361 182.929 60.8202C183.038 60.1727 182.929 57.6907 182.929 57.6907C182.929 57.4749 182.82 57.367 182.603 57.367V55.7483L182.058 54.9929L181.623 54.7771L178.357 47.331L178.466 47.2231V46.8994C178.466 46.6835 178.357 46.5756 178.249 46.5756L159.853 36.0001C159.744 35.8922 159.526 35.8922 159.309 36.108L159.2 36.2159H159.091C158.764 36.0001 158.329 36.0001 157.785 36.2159L133.402 50.1368C133.184 50.2447 132.858 50.4605 132.64 50.7843C132.422 51.0001 132.314 51.3238 132.096 51.5397L129.81 52.8346C129.266 53.1584 128.722 53.8058 128.286 54.4533L124.15 59.849C124.15 59.5253 123.932 59.2015 123.714 59.0936L121.211 57.6907C121.102 57.5828 120.993 57.5828 120.884 57.6907L120.667 57.7986C120.558 57.7986 120.558 57.9066 120.558 58.1224V59.4174C120.558 59.7411 120.775 60.0648 120.993 60.2807L121.646 60.7123C121.537 61.0361 121.537 61.4677 121.646 62.0073C121.755 62.331 121.864 62.5468 122.082 62.8706L121.32 63.8418L107.713 73.662C107.496 73.7699 107.169 74.0936 107.06 74.4173L106.734 75.0648C106.734 75.0648 106.734 75.0648 106.734 75.1727C106.298 75.4965 106.189 77.0073 106.298 78.0864C106.081 78.1943 105.754 78.5181 105.754 79.0576V79.5972C105.645 79.7051 104.774 80.7843 104.666 81.6476L105.427 86.6116C105.427 86.8274 105.536 87.0432 105.645 87.2591C107.713 89.6332 122.517 97.8346 125.674 98.6979C126.545 98.9138 127.742 99.1296 129.157 98.59C129.375 98.8058 129.592 99.0217 129.81 99.1296L132.422 100.64C133.293 101.18 134.491 101.072 135.906 100.317C138.518 98.8058 140.695 95.1368 140.695 92.1152C140.695 91.6835 140.695 91.3598 140.586 91.0361L141.566 91.5756C141.566 91.144 141.457 90.8202 141.457 90.4965V90.6044C141.457 90.9281 141.566 91.144 141.566 91.4677V91.5756L165.622 77.7627C165.84 77.9785 166.057 78.1943 166.275 78.3022L168.887 79.813C169.758 80.3526 170.956 80.2447 172.371 79.4893C174.983 77.9785 177.16 74.3094 177.16 71.2879C177.16 70.9641 177.16 70.5325 177.051 70.2087L177.922 70.7483C177.922 70.4245 177.813 70.2087 177.813 69.9929C177.813 70.2087 177.922 70.4245 177.922 70.6404C177.922 70.6404 177.922 70.6404 177.922 70.7483C177.922 70.7483 181.732 68.6979 182.82 67.9425C183.038 67.8346 183.147 67.6188 183.147 67.403C183.365 66.3238 183.691 63.0864 183.691 62.5468C183.473 62.2231 183.365 62.1152 183.365 62.0073ZM171.064 69.0217C170.738 69.2375 170.52 69.4533 170.303 69.7771C170.52 69.4533 170.847 69.2375 171.064 69.0217ZM170.194 69.885C169.976 70.2087 169.649 70.4245 169.432 70.7483C169.649 70.5325 169.758 70.3166 169.976 70.1008C170.085 69.9929 170.085 69.9929 170.194 69.885ZM134.708 89.849C134.382 90.0648 134.164 90.2807 133.946 90.6044C134.164 90.2807 134.491 90.0648 134.708 89.849ZM133.838 90.7123C133.62 91.0361 133.293 91.2519 133.076 91.5756C133.293 91.3598 133.402 91.144 133.62 90.9281C133.62 90.8202 133.729 90.8202 133.838 90.7123ZM132.967 91.6835C132.749 92.0073 132.531 92.2231 132.422 92.5468C132.64 92.2231 132.749 92.0073 132.967 91.6835ZM132.314 92.7627C132.096 93.0864 131.987 93.4102 131.769 93.7339C131.878 93.4102 132.096 93.0864 132.314 92.7627ZM134.817 89.7411C135.144 89.5253 135.361 89.3094 135.688 89.0936C135.47 89.3094 135.144 89.5253 134.817 89.7411ZM139.933 88.1224L140.042 88.2303C140.151 88.2303 140.151 88.3382 140.26 88.3382L140.369 88.4461C140.151 88.2303 140.042 88.1224 139.824 88.0145C139.824 88.0145 139.933 88.0145 139.933 88.1224ZM140.586 88.662L140.695 88.7699C140.695 88.8778 140.804 88.8778 140.804 88.9857L140.913 89.0936C140.804 88.8778 140.586 88.662 140.477 88.4461C140.477 88.554 140.477 88.662 140.586 88.662ZM141.022 89.5253C141.022 89.5253 141.022 89.6332 141.131 89.6332C141.239 89.849 141.239 89.9569 141.239 90.1727C141.131 89.849 141.022 89.5253 140.913 89.3094C140.913 89.3094 141.022 89.4173 141.022 89.5253ZM169.323 70.8562C169.105 71.1799 168.887 71.3958 168.779 71.7195C168.996 71.3958 169.105 71.1799 169.323 70.8562ZM168.67 72.0433C168.452 72.367 168.343 72.6907 168.126 73.0145C168.234 72.6907 168.452 72.367 168.67 72.0433ZM171.173 68.9138C171.5 68.6979 171.718 68.4821 172.044 68.2663C171.826 68.4821 171.5 68.6979 171.173 68.9138ZM158.982 36.2159H158.873C158.873 36.2159 158.873 36.2159 158.982 36.2159ZM158.656 36.3238H158.547C158.547 36.3238 158.547 36.3238 158.656 36.3238ZM133.076 51.0001L132.967 51.108C132.967 51.108 132.967 51.108 133.076 51.0001ZM123.497 59.4174C123.606 59.5253 123.714 59.6332 123.823 59.7411C123.714 59.6332 123.606 59.4174 123.497 59.4174ZM122.191 61.8994C122.082 61.5756 122.082 61.3598 122.191 61.0361L123.061 61.5756L122.408 62.331C122.299 62.2231 122.191 62.0073 122.191 61.8994ZM131.225 95.2447C131.116 95.4605 131.116 95.7843 131.007 96.0001C131.116 95.7843 131.225 95.4605 131.225 95.2447ZM167.581 74.4173C167.472 74.6332 167.472 74.9569 167.364 75.1727C167.472 74.9569 167.581 74.6332 167.581 74.4173ZM172.588 68.0504C172.697 68.0504 172.697 68.0504 172.806 67.9425C172.697 68.0504 172.588 68.0504 172.588 68.0504ZM176.289 67.403L176.398 67.5109C176.398 67.403 176.398 67.403 176.289 67.403Z" fill="#EEEAE5"/>
</g>
<path d="M105.863 95.0289C106.516 95.5684 107.278 96.0001 108.149 96.4318C108.258 96.4318 108.367 96.5397 108.475 96.5397C110.108 97.403 111.959 98.0505 113.809 98.4821L115.115 96.5397C112.938 96.108 110.979 95.3526 109.237 94.4893C109.02 94.3814 108.693 94.1656 108.475 94.0577C107.931 93.7339 107.387 93.4102 106.951 92.9785L105.863 93.1943L104.23 93.5181C104.774 94.0577 105.21 94.5972 105.863 95.0289Z" fill="#EDB400"/>
<path d="M102.706 99.3454C103.686 99.8849 104.774 100.317 105.863 100.748C106.734 101.072 107.496 101.396 108.367 101.612C109.237 101.935 110.217 102.151 111.197 102.367L112.503 100.425C111.088 100.101 109.673 99.777 108.367 99.3454C107.496 99.0216 106.625 98.6979 105.863 98.3741C105.101 98.0504 104.448 97.7267 103.795 97.4029C102.162 96.5396 100.747 95.5684 99.6585 94.4893L97.1549 94.9209C98.4611 96.5396 100.312 98.0504 102.706 99.3454Z" fill="#EDB400"/>
<path d="M97.2638 102.151C99.8762 103.554 102.815 104.633 105.863 105.496C106.734 105.712 107.496 105.928 108.367 106.144L108.584 106.252L109.89 104.309C109.346 104.201 108.802 104.094 108.258 103.986C107.387 103.77 106.516 103.554 105.754 103.338C103.142 102.583 100.529 101.504 98.2435 100.317C95.7399 99.0216 93.7806 97.5108 92.3655 95.8921L89.8619 96.3237C91.6036 98.482 94.1071 100.424 97.2638 102.151Z" fill="#EDB400"/>
<path d="M91.93 104.957C96.1752 107.223 100.856 108.842 105.863 109.921L106.081 110.029L107.387 108.086C106.843 107.978 106.298 107.87 105.754 107.763C101.182 106.683 96.7195 105.173 92.8009 103.122C89.5353 101.396 86.9229 99.3453 85.1813 97.2949L82.6777 97.7266C84.8547 100.317 87.9026 102.906 91.93 104.957Z" fill="#EDB400"/>
<path d="M77.1263 52.187C77.344 52.2949 77.6705 52.4028 77.8882 52.6187C78.1059 52.7266 78.2148 52.9424 78.2148 53.1582V53.2661C78.1059 53.3741 78.2148 53.482 78.1059 53.5899C77.9971 54.0215 77.7794 54.3453 77.4528 54.669C77.2351 54.8848 77.0174 54.8848 76.6909 54.669C75.9289 54.1295 75.167 53.9136 74.1873 54.0215C73.4254 54.1295 72.7722 54.3453 72.1191 54.669C71.7926 54.7769 71.5749 54.9928 71.2483 55.1007C69.9421 55.964 68.9625 57.0431 68.0917 58.2302C67.5474 58.8777 67.2209 59.633 66.7855 60.3884C66.6766 60.7122 66.4589 60.928 66.1324 61.0359C65.9146 61.1438 65.6969 61.0359 65.5881 60.8201C65.4792 60.6043 65.4792 60.3884 65.4792 60.1726C65.4792 59.741 65.6969 59.4172 65.9146 59.0935C67.0032 57.0431 68.4182 55.2086 70.1598 53.8057C71.1395 53.0503 72.1191 52.4028 73.3165 51.9712C74.1873 51.6474 75.167 51.5395 76.1466 51.7554C76.3643 51.7554 76.582 51.8633 76.7997 51.9712C77.0174 52.187 77.1263 52.187 77.1263 52.187Z" fill="#EDB400"/>
<path d="M71.9015 58.4462C71.4661 58.662 71.1395 58.8778 70.813 59.2016C69.8333 60.0649 68.9625 61.144 68.4182 62.331C68.3094 62.5469 68.2005 62.7627 67.9828 62.8706C67.6563 63.1944 67.2209 62.9785 67.112 62.5469C67.0032 62.2231 67.112 61.7915 67.3297 61.4677C67.874 60.3886 68.5271 59.4174 69.2891 58.5541C70.051 57.6908 70.813 56.9354 71.7926 56.3958C72.4457 55.9641 73.2077 55.7483 73.9696 55.6404C74.5139 55.5325 74.9493 55.6404 75.4935 55.7483C75.6024 55.7483 75.6024 55.7483 75.7112 55.7483C75.9289 55.8562 76.1466 55.9641 76.2555 56.0721C76.5821 56.2879 76.6909 56.5037 76.6909 56.8275C76.6909 57.367 76.4732 57.7987 76.0378 58.1224C75.7112 58.3382 75.4935 58.3382 75.2758 58.1224C74.6227 57.6908 73.8608 57.5828 72.99 57.7987C72.6634 58.0145 72.3369 58.1224 71.9015 58.4462Z" fill="#EDB400"/>
<path d="M68.7449 64.5972C68.5272 63.9497 68.7449 63.5181 69.0714 62.9785C69.6157 62.1152 70.1599 61.2519 70.9219 60.6044C71.575 60.0648 72.3369 59.5253 73.2077 59.3095C73.5343 59.2015 73.9697 59.2015 74.2962 59.3095H74.4051C74.4051 59.3095 74.4051 59.3095 74.5139 59.3095C74.6228 59.4174 74.8405 59.4174 74.9494 59.5253C75.2759 59.6332 75.3848 59.9569 75.3848 60.2807C75.3848 60.8202 75.1671 61.2519 74.8405 61.5756C74.7316 61.6836 74.6228 61.7915 74.4051 61.7915C74.2962 61.7915 74.1874 61.7915 74.0785 61.7915C73.5343 61.4677 72.99 61.4677 72.4458 61.6836C72.1192 61.7915 71.7927 62.0073 71.4661 62.331C71.3573 62.331 71.3573 62.4389 71.2484 62.4389C70.7042 62.8706 70.3776 63.5181 70.0511 64.0577C69.9422 64.2735 69.8334 64.4893 69.6157 64.5972C69.398 64.7051 69.1803 64.813 68.9626 64.7051C68.8537 64.7051 68.8537 64.7051 68.7449 64.5972Z" fill="#EDB400"/>
<path d="M97.3725 57.5825L96.8282 57.9063L98.2433 58.6617L98.7876 58.3379L97.3725 57.5825Z" fill="#EEEAE5"/>
<path d="M96.8282 115.532V57.9062L98.2433 58.6616V116.395L96.8282 115.532Z" fill="#E1DCD3"/>
<path d="M98.2433 58.6616L98.7875 58.3379V116.072L98.2433 116.395V58.6616Z" fill="#B7B2AA"/>
<path d="M98.2433 113.913V111.971L96.8282 110.029V111.971L98.2433 113.913ZM98.2433 109.273V107.331L96.8282 105.388V107.331L98.2433 109.273ZM98.2433 104.633V102.69L96.8282 100.748V102.69L98.2433 104.633ZM98.2433 99.9926V98.0501L96.8282 96.1077V98.0501L98.2433 99.9926ZM98.2433 95.2444V93.3019L96.8282 91.3595V93.3019L98.2433 95.2444ZM98.2433 90.6041V88.6616L96.8282 86.7192V88.6616L98.2433 90.6041ZM98.2433 85.9638V84.0213L96.8282 82.0789V84.0213L98.2433 85.9638ZM98.2433 81.3235V79.381L96.8282 77.4386V79.381L98.2433 81.3235ZM98.2433 76.5753V74.6328L96.8282 72.6904V74.6328L98.2433 76.5753ZM98.2433 71.935V69.9926L96.8282 68.0501V69.9926L98.2433 71.935ZM98.2433 67.2947V65.3523L96.8282 63.4098V65.3523L98.2433 67.2947ZM98.2433 62.6544V60.712L96.8282 58.7695V60.712L98.2433 62.6544Z" fill="#D32F3F"/>
<path d="M93.7806 115.317C94.5425 115.856 95.1957 116.936 95.1957 117.907C95.1957 118.878 94.5425 119.202 93.6717 118.77C92.8009 118.338 92.1478 117.151 92.1478 116.18C92.2567 115.317 92.9098 114.885 93.7806 115.317Z" fill="url(#paint15_linear_1192_191)"/>
<path d="M92.692 115.316C92.9097 115.209 93.3451 115.209 93.6717 115.424C94.4336 115.856 95.0867 116.935 95.0867 117.906C95.0867 118.338 94.9779 118.662 94.6513 118.77L93.2362 119.633L91.1681 116.18L92.692 115.316Z" fill="url(#paint16_linear_1192_191)"/>
<path d="M93.2932 119.683C93.8659 119.355 93.8671 118.294 93.296 117.314C92.7249 116.333 91.7977 115.804 91.225 116.132C90.6524 116.459 90.6511 117.52 91.2222 118.501C91.7933 119.481 92.7205 120.011 93.2932 119.683Z" fill="#58465A"/>
<path d="M93.0185 118.338C93.0185 118.77 92.692 118.986 92.2566 118.77C91.8212 118.554 91.4946 118.014 91.4946 117.583C91.4946 117.151 91.8212 116.935 92.2566 117.151C92.692 117.259 93.0185 117.906 93.0185 118.338Z" fill="#E1DCD3"/>
<path d="M97.2638 136.575L103.359 133.122V131.503L97.2638 135.065V136.575Z" fill="url(#paint17_linear_1192_191)"/>
<path d="M88.6646 131.719L97.2638 136.575V135.065L88.6646 130.101V131.719Z" fill="#58465A"/>
<path d="M97.2638 135.065L103.359 131.504L94.869 126.647L88.6646 130.101L97.2638 135.065Z" fill="#776D70"/>
<path opacity="0.37" d="M95.1956 126.755L103.359 131.504L100.638 133.338L99.0053 133.986H97.2637L95.1956 126.755Z" fill="#575756"/>
<path d="M97.2637 133.986L101.618 131.504V112.834L97.2637 115.424V133.986Z" fill="#B7B2AA"/>
<path d="M90.4061 130.101L97.2637 133.986V115.424L90.4061 111.432V130.101Z" fill="#E1DCD3"/>
<path d="M91.277 119.417V129.561L96.2841 132.475V122.331L91.277 119.417Z" fill="#58465A"/>
<path d="M97.2637 115.425L101.618 112.835L94.7602 108.95L90.4061 111.432L97.2637 115.425Z" fill="#FFBB16"/>
<path d="M97.2637 115.64L101.618 113.158V111.54L97.2637 114.129V115.64Z" fill="url(#paint18_linear_1192_191)"/>
<path d="M90.4061 111.755L97.2637 115.64V114.13L90.4061 110.137V111.755Z" fill="#58465A"/>
<path d="M97.2637 114.13L101.618 111.54L94.7602 107.655L90.4061 110.137L97.2637 114.13Z" fill="#776D70"/>
<path d="M93.9983 122.547C93.8894 122.655 93.6717 122.547 93.5629 122.439C93.454 122.223 93.3452 122.007 93.454 121.899C93.5629 121.791 93.7806 121.899 93.8894 122.007C93.9983 122.223 94.1071 122.439 93.9983 122.547Z" fill="#E1DCD3"/>
<path d="M93.6717 122.331C93.7806 122.439 93.7806 122.439 93.6717 122.331L93.7806 122.007C93.7806 122.007 93.7806 121.899 93.6717 121.899H93.5629L93.6717 122.331Z" fill="#938E86"/>
<path d="M95.1956 114.022L96.8283 114.993V114.237L95.1956 113.374V114.022Z" fill="url(#paint19_linear_1192_191)"/>
<path d="M96.8282 102.259L94.76 101.072C94.5423 100.964 94.4335 101.072 94.4335 101.288V103.662C94.4335 103.878 94.5423 104.094 94.76 104.202L96.8282 105.389C97.0459 105.497 97.1547 105.389 97.1547 105.173V102.799C97.1547 102.583 97.0459 102.259 96.8282 102.259Z" fill="#374A57"/>
<path d="M94.9778 101.18L94.5424 101.072L94.3247 101.18L94.869 101.396L94.9778 101.18Z" fill="#374A57"/>
<path d="M97.0459 105.281L96.6105 105.065L96.2839 105.281L96.7193 105.389L97.0459 105.281Z" fill="#374A57"/>
<path d="M96.6105 105.389L94.5424 104.202C94.3247 104.094 94.2158 103.878 94.2158 103.662V101.288C94.2158 101.072 94.3247 100.964 94.5424 101.072L96.6105 102.259C96.8282 102.367 96.9371 102.583 96.9371 102.799V105.173C96.8282 105.389 96.7194 105.497 96.6105 105.389Z" fill="#8A9CA8"/>
<path d="M94.6512 101.72C94.4335 101.72 94.4335 101.612 94.4335 101.612C94.4335 101.504 94.4335 101.504 94.5423 101.504C94.6512 101.504 94.6512 101.612 94.6512 101.72Z" fill="#374A57"/>
<path d="M96.6105 102.799C96.6105 102.907 96.6105 102.907 96.6105 102.799C96.3928 102.799 96.3928 102.691 96.3928 102.691C96.3928 102.583 96.3928 102.583 96.5017 102.583C96.6105 102.691 96.6105 102.691 96.6105 102.799Z" fill="#374A57"/>
<path d="M94.6512 103.878C94.6512 103.986 94.6512 103.986 94.6512 103.878C94.4335 103.878 94.4335 103.77 94.4335 103.77C94.4335 103.662 94.4335 103.662 94.5423 103.662C94.6512 103.77 94.6512 103.77 94.6512 103.878Z" fill="#3C3C3B"/>
<path d="M96.6105 105.065C96.3928 105.065 96.3928 104.957 96.3928 104.957C96.3928 104.849 96.3928 104.849 96.5017 104.849C96.6105 104.849 96.6105 104.957 96.6105 105.065Z" fill="#374A57"/>
<path d="M95.9575 103.554C95.9575 103.878 95.7398 103.986 95.5221 103.77C95.3044 103.662 95.0867 103.23 95.0867 103.015C95.0867 102.691 95.3044 102.583 95.5221 102.799C95.8486 102.907 95.9575 103.23 95.9575 103.554Z" fill="#3C3C3B"/>
<path d="M96.1752 103.662C96.1752 104.094 95.8486 104.309 95.4132 104.094C94.9778 103.878 94.6512 103.338 94.6512 102.799C94.6512 102.367 94.9778 102.151 95.4132 102.367C95.8486 102.691 96.1752 103.23 96.1752 103.662Z" fill="white"/>
<path d="M92.8008 104.417C92.6919 104.417 92.4742 104.309 92.4742 104.202C92.3654 103.986 92.4742 103.878 92.6919 103.77L95.3043 103.015C95.522 102.907 95.6309 103.015 95.7397 103.23C95.8486 103.446 95.7397 103.554 95.522 103.662L92.8008 104.417Z" fill="#8A9CA8"/>
<path d="M93.2362 104.094C93.2362 104.525 92.9096 104.849 92.4742 104.849C92.0388 104.849 91.7123 104.525 91.7123 104.094C91.7123 103.662 92.0388 103.338 92.4742 103.338C92.9096 103.338 93.2362 103.662 93.2362 104.094Z" fill="#374A57"/>
<path d="M92.3654 103.878C92.2566 103.878 92.0389 103.77 92.0389 103.662L91.4946 101.288C91.4946 101.072 91.6035 100.964 91.7123 100.856C91.93 100.856 92.0389 100.964 92.1477 101.072L92.692 103.446C92.692 103.554 92.5831 103.77 92.3654 103.878Z" fill="#8A9CA8"/>
<path d="M92.5831 100.748C92.5831 101.288 92.1477 101.827 91.4946 101.827C90.9504 101.827 90.4061 101.396 90.4061 100.748C90.4061 100.101 90.8415 99.6689 91.4946 99.6689C92.1477 99.6689 92.5831 100.209 92.5831 100.748Z" fill="#374A57"/>
<path d="M86.1609 99.885L92.3654 96.3238C92.5831 96.2159 93.0185 96.2159 93.4539 96.4317L86.4874 100.425C86.1609 100.64 85.8343 100.101 86.1609 99.885C86.052 99.885 86.052 99.885 86.1609 99.885Z" fill="#374A57"/>
<path d="M92.0388 97.4028C92.0388 96.5395 92.5831 96.2157 93.345 96.6474C94.107 97.0791 94.6512 98.0503 94.6512 98.9136C94.6512 99.7769 94.107 100.101 93.345 99.669C92.5831 99.2373 92.0388 98.1582 92.0388 97.4028Z" fill="#B7B2AA"/>
<path d="M92.509 96.4577L86.9474 99.6411L88.7979 102.819L94.3595 99.6351L92.509 96.4577Z" fill="#B7B2AA"/>
<path d="M86.4874 100.532C86.4874 101.395 87.0317 102.367 87.7936 102.798C88.5556 103.23 89.0998 102.906 89.0998 102.043C89.0998 101.18 88.5556 100.208 87.7936 99.7768C87.1405 99.3451 86.4874 99.6689 86.4874 100.532ZM87.3582 99.9926C87.4671 99.9926 87.5759 100.101 87.6848 100.101C88.0113 100.316 88.229 100.532 88.4467 100.964C88.6644 101.288 88.7733 101.719 88.7733 102.043C88.7733 102.151 88.7733 102.367 88.6644 102.367C88.6644 102.475 88.5556 102.475 88.5556 102.583C88.4467 102.69 88.229 102.583 88.0113 102.475C87.6848 102.259 87.4671 102.043 87.2494 101.611C87.0317 101.288 86.9228 100.856 86.9228 100.532C86.9228 100.316 87.0317 100.101 87.1405 99.9926C87.1405 99.9926 87.2494 99.9926 87.3582 99.9926Z" fill="#EDEDED"/>
<path d="M86.9229 100.532C86.9229 100.856 87.0317 101.288 87.2494 101.611C87.4671 101.935 87.7937 102.259 88.0114 102.475C88.2291 102.583 88.4468 102.691 88.5556 102.583C88.6645 102.583 88.6645 102.475 88.6645 102.367C88.6645 102.259 88.7733 102.151 88.7733 102.043C88.7733 101.719 88.6645 101.288 88.4468 100.964C88.2291 100.64 87.9025 100.316 87.6848 100.101C87.576 99.9927 87.4671 99.9927 87.3583 99.9927C87.2494 99.9927 87.2494 99.9927 87.1405 99.9927C86.9228 100.101 86.9229 100.209 86.9229 100.532Z" fill="#374A57"/>
<path d="M87.3582 99.9927C87.4671 99.9927 87.5759 100.101 87.6848 100.101C87.7936 100.101 87.7936 100.209 87.9025 100.209C88.1202 100.424 88.3379 100.64 88.4467 100.856C88.5556 101.072 88.6644 101.396 88.7733 101.719C88.7733 101.827 88.7733 101.935 88.7733 101.935C88.7733 102.043 88.7733 102.259 88.6644 102.259C88.5556 102.259 88.3379 102.259 88.229 102.151C87.9025 102.043 87.6848 101.719 87.4671 101.396C87.2494 101.072 87.1405 100.64 87.1405 100.316C87.1405 100.209 87.2494 100.101 87.3582 99.9927Z" fill="#8A9CA8"/>
<path d="M87.4672 100.532C87.4672 101.072 87.7937 101.611 88.2291 101.935C88.4468 102.043 88.6645 102.043 88.7734 102.043C88.7734 101.935 88.7734 101.827 88.7734 101.827C88.7734 101.611 88.6645 101.288 88.4468 100.964C88.338 100.748 88.1203 100.424 87.9026 100.316C87.7937 100.208 87.7937 100.208 87.6849 100.208C87.576 100.208 87.4672 100.316 87.4672 100.532Z" fill="#3C3C3B"/>
<path d="M87.9025 100.208C88.1202 100.424 88.3379 100.64 88.4468 100.856C88.5556 101.072 88.6645 101.396 88.7733 101.719C88.6645 101.827 88.5556 101.827 88.3379 101.719C88.0114 101.503 87.6848 101.072 87.6848 100.64C87.6848 100.424 87.7937 100.316 87.9025 100.208Z" fill="#1D1D1B"/>
<path opacity="0.5" d="M88.4467 101.396C88.3379 101.288 88.229 101.18 88.1202 101.072L87.9025 101.18C88.0113 101.288 88.1202 101.503 88.229 101.503C88.3379 101.611 88.4467 101.611 88.4467 101.611V101.396C88.5556 101.396 88.5556 101.396 88.4467 101.396Z" fill="#EDEDED"/>
<path d="M94.2159 98.5899C94.3248 98.5899 94.3248 98.4819 94.3248 98.374C94.3248 98.2661 94.2159 98.2661 94.2159 98.2661L89.4265 100.964C89.3176 100.964 89.3176 101.072 89.3176 101.18C89.3176 101.288 89.4265 101.288 89.4265 101.288L94.2159 98.5899Z" fill="#C6C6C6"/>
<path d="M94.3247 99.1293C94.4335 99.1293 94.4335 99.0214 94.4335 98.9135C94.4335 98.8055 94.4335 98.8055 94.3247 98.9135L89.5352 101.611C89.4264 101.611 89.4264 101.719 89.4264 101.827C89.4264 101.935 89.4264 101.935 89.5352 101.827L94.3247 99.1293Z" fill="#C6C6C6"/>
<path d="M92.3654 96.3238C92.6919 96.1079 93.0185 96.1079 93.4539 96.4317C93.8893 96.6475 94.2158 97.0792 94.5424 97.5108C94.7601 97.8345 94.869 98.2662 94.9778 98.5899C94.9778 98.8058 94.8689 99.0216 94.7601 99.1295L89.9707 101.827C89.4264 102.151 88.6645 101.935 88.4468 101.396C88.4468 101.288 88.3379 101.18 88.3379 101.18C88.1202 100.748 87.6848 100.317 87.2494 100.101C86.814 99.8849 86.4874 99.8849 86.1609 99.9928L92.3654 96.3238Z" fill="#E1DCD3"/>
<path d="M89.8618 101.396C89.9706 101.396 89.9706 101.396 90.0795 101.503C90.0795 101.611 90.0795 101.719 89.9706 101.719C89.8618 101.719 89.8618 101.719 89.7529 101.611C89.7529 101.503 89.7529 101.396 89.8618 101.396Z" fill="#374A57"/>
<path d="M91.3857 100.532C91.4946 100.532 91.4946 100.532 91.6034 100.64C91.7123 100.748 91.6034 100.856 91.4946 100.856C91.3857 100.856 91.3858 100.856 91.2769 100.748C91.168 100.64 91.2769 100.532 91.3857 100.532Z" fill="#374A57"/>
<path d="M92.9096 99.6689C93.0185 99.6689 93.0185 99.6689 93.1273 99.7769C93.1273 99.8848 93.1273 99.9927 93.0185 99.9927C92.9096 99.9927 92.9096 99.9927 92.8008 99.8848C92.8008 99.7769 92.8008 99.6689 92.9096 99.6689Z" fill="#374A57"/>
<path d="M94.3247 98.8057C94.4335 98.8057 94.4335 98.8057 94.5424 98.9136C94.5424 99.0215 94.5424 99.1294 94.4335 99.1294C94.3247 99.1294 94.3247 99.1294 94.2158 99.0215C94.2158 98.9136 94.3247 98.8057 94.3247 98.8057Z" fill="#374A57"/>
<path d="M97.2637 115.208L101.182 112.942V103.23L97.2637 105.496V115.208Z" fill="url(#paint20_linear_1192_191)"/>
<path d="M93.5627 112.942L97.2637 115.208V105.496L93.5627 103.23V112.942Z" fill="#58465A"/>
<path d="M94.4336 103.662V112.511L96.5018 113.806V104.957L94.4336 103.662ZM94.5424 103.77L96.3929 104.957V113.698L94.5424 112.511V103.77Z" fill="url(#paint21_linear_1192_191)"/>
<path d="M97.2637 105.496L101.182 103.23L97.4814 101.072L93.5627 103.23L97.2637 105.496Z" fill="#FFBB16"/>
<path d="M97.2637 105.712L101.182 103.446V102.043L97.2637 104.309V105.712Z" fill="url(#paint22_linear_1192_191)"/>
<path d="M93.5627 103.446L97.2637 105.712V104.309L93.5627 102.151V103.446Z" fill="#58465A"/>
<path d="M97.2637 104.309L101.182 102.043L97.4814 99.8848L93.5627 102.151L97.2637 104.309Z" fill="#776D70"/>
<path d="M196.536 105.28L193.488 107.007L179.773 104.849H179.664C181.297 105.712 182.494 106.252 183.147 106.683L188.59 109.813L186.413 111.108L174.874 104.525L177.922 102.798L191.529 104.849C190.005 103.986 188.807 103.446 188.263 103.122L182.82 99.9927L184.998 98.6978L196.536 105.28Z" fill="#4F4A4A"/>
<path d="M183.256 113.051L180.861 114.453L169.323 107.871L171.718 106.468L183.256 113.051Z" fill="#4F4A4A"/>
<path d="M147.662 59.7412L131.661 64.0578" stroke="#FFD817" stroke-width="10" stroke-miterlimit="10" stroke-linecap="round"/>
<path d="M162.03 71.2881C170.266 71.2881 176.942 64.669 176.942 56.5039C176.942 48.3388 170.266 41.7197 162.03 41.7197C153.794 41.7197 147.117 48.3388 147.117 56.5039C147.117 64.669 153.794 71.2881 162.03 71.2881Z" fill="white" fill-opacity="0.7" stroke="#FFD817" stroke-width="5" stroke-miterlimit="10"/>
<path d="M168.67 46.6836L154.519 54.6692C154.193 54.885 153.975 55.2088 153.975 55.6404V65.4606C153.975 65.6764 154.084 65.7843 154.193 65.8922C154.301 66.0001 154.628 66.216 154.737 66.1081L168.561 57.6908C168.887 57.475 169.105 57.1512 169.105 56.7196L169.541 47.0073C169.541 46.7915 169.214 46.6836 168.996 46.5757C168.887 46.5757 168.779 46.5757 168.67 46.6836Z" fill="url(#paint23_linear_1192_191)"/>
<path d="M159.417 53.4824L154.301 56.396V55.7485C154.301 55.3169 154.519 54.9931 154.846 54.7773L160.07 51.8636L168.996 46.7917C169.323 46.5759 169.649 46.7917 169.649 47.2234V47.655L160.397 52.9428L159.417 53.4824Z" fill="#EDB400"/>
<path d="M154.519 66C154.519 65.8921 154.41 65.8921 154.519 66C154.41 65.8921 154.41 65.8921 154.519 66C154.41 65.8921 154.301 65.7842 154.301 65.7842V65.6763V60.6043V59.741L161.159 55.8561L169.649 51V57.1511C169.649 57.5827 169.432 57.9065 169.105 58.1223L162.901 61.6835L154.954 66.2158C154.954 66.2158 154.954 66.2158 154.846 66.2158H154.737H154.628C154.628 66.2158 154.628 66.2158 154.519 66.2158C154.628 66 154.628 66 154.519 66Z" fill="#EDB400"/>
<path d="M159.417 53.482L154.301 56.3957V55.7482C154.301 55.3165 154.519 54.9928 154.846 54.777L160.07 51.8633L160.397 52.9424L159.417 53.482Z" fill="#FFD817"/>
<path d="M154.519 66.0003C154.519 65.8924 154.41 65.8924 154.519 66.0003C154.41 65.8924 154.41 65.8924 154.519 66.0003C154.41 65.8924 154.301 65.7845 154.301 65.7845V65.6766V60.6046V59.7413L161.159 55.8564L161.268 56.2881L161.377 56.6118L162.248 59.6334L162.356 59.8493L162.901 61.5759L154.954 66.1082C154.954 66.1082 154.954 66.1082 154.846 66.1082H154.737H154.628C154.628 66.1082 154.628 66.1082 154.519 66.1082C154.628 66.0003 154.628 66.0003 154.519 66.0003Z" fill="#FFD817"/>
<path d="M156.261 60.3887C156.261 60.6045 156.261 60.7124 156.152 60.8203C156.043 60.9282 155.934 61.0361 155.716 61.1441H155.608V61.6836L155.281 61.8995V60.3887L155.716 60.1728C156.043 59.957 156.261 60.0649 156.261 60.3887ZM155.608 61.0361C155.716 60.9282 155.825 60.9282 155.825 60.8203C155.825 60.7124 155.934 60.7124 155.934 60.6045C155.934 60.4966 155.934 60.4966 155.934 60.4966H155.825H155.716V61.0361H155.608Z" fill="#EAEAEA"/>
<path d="M157.132 60.9283L157.023 60.6045L156.587 60.8204L156.478 61.252L156.152 61.4678L156.587 59.6333L157.023 59.4175L157.458 60.7124L157.132 60.9283ZM157.023 60.3887L156.914 60.065V59.957C156.914 59.8491 156.914 59.8491 156.914 59.8491C156.914 59.957 156.914 59.957 156.914 60.065C156.914 60.1729 156.914 60.3887 156.805 60.6045L157.023 60.3887Z" fill="#EAEAEA"/>
<path d="M157.893 59.8492V60.4966L157.567 60.7125V59.2017L158.002 58.9858C158.22 58.8779 158.329 58.8779 158.329 58.8779C158.438 58.8779 158.438 58.9858 158.438 59.2017C158.438 59.4175 158.329 59.5254 158.22 59.7412L158.547 60.2808L158.22 60.4966L158.002 60.065L157.893 59.8492ZM157.893 59.6333C158.002 59.5254 158.111 59.5254 158.111 59.4175C158.111 59.3096 158.111 59.3096 158.111 59.2017C158.111 59.0938 158.111 59.0938 158.111 59.0938H158.002H157.893V59.6333Z" fill="#EAEAEA"/>
<path d="M159.744 59.4175L159.417 59.6334L159.2 59.0938L159.091 59.3096V59.8492L158.764 60.065V58.5542L159.091 58.3384V59.0938L159.2 58.77L159.526 58.1226L159.853 57.9067L159.526 58.77L159.744 59.4175Z" fill="#EAEAEA"/>
<path d="M159.962 59.3096V57.7988L160.288 57.583V59.0938L159.962 59.3096Z" fill="#EAEAEA"/>
<path d="M161.812 58.2305L161.486 58.4463L160.941 57.583C160.941 57.6909 160.941 57.6909 160.941 57.7989V58.6622L160.615 58.878V57.3672L160.941 57.1514L161.486 58.0147C161.486 57.9068 161.486 57.9068 161.486 57.7989V56.9356L161.812 56.7197V58.2305Z" fill="#EAEAEA"/>
<path d="M162.574 56.9356L163.118 56.6118V57.3672C163.009 57.4752 162.792 57.5831 162.683 57.691C162.465 57.7989 162.356 57.7989 162.247 57.691C162.139 57.5831 162.139 57.4752 162.139 57.1514C162.139 56.9356 162.247 56.7198 162.356 56.5039C162.465 56.2881 162.683 56.1802 162.901 55.9644C163.009 55.8564 163.118 55.8564 163.227 55.8564L163.118 56.1802C163.009 56.1802 162.901 56.1802 162.901 56.2881C162.792 56.396 162.683 56.5039 162.574 56.6118C162.465 56.7198 162.465 56.9356 162.465 57.0435C162.465 57.2593 162.465 57.3672 162.574 57.3672C162.574 57.4752 162.683 57.4752 162.792 57.3672L162.901 57.2593V56.9356L162.683 57.0435V56.9356H162.574Z" fill="#EAEAEA"/>
<path d="M161.159 55.7483L160.288 52.9426L169.649 47.6548V50.8922L161.159 55.7483Z" fill="#46404D"/>
<path d="M154.301 59.633V56.3956L159.417 53.482L160.288 52.9424L161.159 55.7481L154.301 59.633Z" fill="url(#paint24_linear_1192_191)"/>
</g>
<rect x="0.5" y="0.5" width="223" height="190" stroke="#DF7A20"/>
<defs>
<linearGradient id="paint0_linear_1192_191" x1="77.8135" y1="117.562" x2="204.215" y2="117.562" gradientUnits="userSpaceOnUse">
<stop stop-color="#443646"/>
<stop offset="1" stop-color="#2D2430"/>
</linearGradient>
<linearGradient id="paint1_linear_1192_191" x1="19.0143" y1="136.75" x2="77.8135" y2="136.75" gradientUnits="userSpaceOnUse">
<stop stop-color="#443646"/>
<stop offset="1" stop-color="#2D2430"/>
</linearGradient>
<linearGradient id="paint2_linear_1192_191" x1="72.6735" y1="71.3045" x2="74.0517" y2="71.3045" gradientUnits="userSpaceOnUse">
<stop stop-color="#BADC55"/>
<stop offset="0.6347" stop-color="#BCDD56"/>
<stop offset="0.8631" stop-color="#C3E05B"/>
<stop offset="1" stop-color="#CCE561"/>
</linearGradient>
<linearGradient id="paint3_linear_1192_191" x1="157.855" y1="59.6913" x2="153.263" y2="67.7127" gradientUnits="userSpaceOnUse">
<stop offset="0.1773" stop-color="#C18C68"/>
<stop offset="0.202" stop-color="#F4C698"/>
<stop offset="0.8276" stop-color="#F4C698"/>
<stop offset="0.8807" stop-color="#E2B48A"/>
<stop offset="0.9393" stop-color="#D7A980"/>
<stop offset="1" stop-color="#D3A57D"/>
</linearGradient>
<linearGradient id="paint4_linear_1192_191" x1="161.718" y1="50.7061" x2="156.146" y2="60.4402" gradientUnits="userSpaceOnUse">
<stop offset="0.1034" stop-color="#F4C698"/>
<stop offset="0.1156" stop-color="#E2B489"/>
<stop offset="0.1289" stop-color="#D7A980"/>
<stop offset="0.1429" stop-color="#D3A57D"/>
</linearGradient>
<linearGradient id="paint5_linear_1192_191" x1="140.333" y1="64.8344" x2="135.742" y2="72.8558" gradientUnits="userSpaceOnUse">
<stop offset="0.1773" stop-color="#C18C68"/>
<stop offset="0.202" stop-color="#F4C698"/>
<stop offset="0.8276" stop-color="#F4C698"/>
<stop offset="0.8807" stop-color="#E2B48A"/>
<stop offset="0.9393" stop-color="#D7A980"/>
<stop offset="1" stop-color="#D3A57D"/>
</linearGradient>
<linearGradient id="paint6_linear_1192_191" x1="144.196" y1="55.8492" x2="138.624" y2="65.5833" gradientUnits="userSpaceOnUse">
<stop offset="0.1034" stop-color="#F4C698"/>
<stop offset="0.1156" stop-color="#E2B489"/>
<stop offset="0.1289" stop-color="#D7A980"/>
<stop offset="0.1429" stop-color="#D3A57D"/>
</linearGradient>
<linearGradient id="paint7_linear_1192_191" x1="142.69" y1="52.9587" x2="141.313" y2="55.3648" gradientUnits="userSpaceOnUse">
<stop stop-color="#F4C698"/>
<stop offset="0.1689" stop-color="#F2C496"/>
<stop offset="0.2297" stop-color="#EBBD91"/>
<stop offset="0.2729" stop-color="#E0B287"/>
<stop offset="0.3005" stop-color="#D3A57D"/>
</linearGradient>
<linearGradient id="paint8_linear_1192_191" x1="150.993" y1="70.9357" x2="146.402" y2="78.9572" gradientUnits="userSpaceOnUse">
<stop offset="0.1773" stop-color="#C18C68"/>
<stop offset="0.202" stop-color="#F4C698"/>
<stop offset="0.8276" stop-color="#F4C698"/>
<stop offset="0.8807" stop-color="#E2B48A"/>
<stop offset="0.9393" stop-color="#D7A980"/>
<stop offset="1" stop-color="#D3A57D"/>
</linearGradient>
<linearGradient id="paint9_linear_1192_191" x1="154.856" y1="61.9506" x2="149.284" y2="71.6847" gradientUnits="userSpaceOnUse">
<stop offset="0.1034" stop-color="#F4C698"/>
<stop offset="0.1156" stop-color="#E2B489"/>
<stop offset="0.1289" stop-color="#D7A980"/>
<stop offset="0.1429" stop-color="#D3A57D"/>
</linearGradient>
<linearGradient id="paint10_linear_1192_191" x1="153.35" y1="59.0601" x2="151.973" y2="61.4662" gradientUnits="userSpaceOnUse">
<stop stop-color="#F4C698"/>
<stop offset="0.1689" stop-color="#F2C496"/>
<stop offset="0.2297" stop-color="#EBBD91"/>
<stop offset="0.2729" stop-color="#E0B287"/>
<stop offset="0.3005" stop-color="#D3A57D"/>
</linearGradient>
<linearGradient id="paint11_linear_1192_191" x1="161.203" y1="36.8447" x2="145.43" y2="64.4007" gradientUnits="userSpaceOnUse">
<stop stop-color="#BADC55"/>
<stop offset="0.5053" stop-color="#BCDD56"/>
<stop offset="0.6873" stop-color="#C3DF58"/>
<stop offset="0.817" stop-color="#CEE45D"/>
<stop offset="0.9211" stop-color="#DFEB64"/>
<stop offset="1" stop-color="#F2F26B"/>
</linearGradient>
<linearGradient id="paint12_linear_1192_191" x1="136.27" y1="55.2208" x2="153.102" y2="84.6274" gradientUnits="userSpaceOnUse">
<stop stop-color="#A1B945"/>
<stop offset="1" stop-color="#8CA53C"/>
</linearGradient>
<linearGradient id="paint13_linear_1192_191" x1="129.814" y1="68.7191" x2="121.289" y2="83.6141" gradientUnits="userSpaceOnUse">
<stop stop-color="#BADC55"/>
<stop offset="0.6347" stop-color="#BCDD56"/>
<stop offset="0.8631" stop-color="#C3E05B"/>
<stop offset="1" stop-color="#CCE561"/>
</linearGradient>
<linearGradient id="paint14_linear_1192_191" x1="103.577" y1="82.3377" x2="125.283" y2="90.3577" gradientUnits="userSpaceOnUse">
<stop stop-color="#CCE561"/>
<stop offset="0.1369" stop-color="#C3E05B"/>
<stop offset="0.3653" stop-color="#BCDD56"/>
<stop offset="1" stop-color="#BADC55"/>
</linearGradient>
<linearGradient id="paint15_linear_1192_191" x1="92.2508" y1="117.062" x2="95.2367" y2="117.062" gradientUnits="userSpaceOnUse">
<stop stop-color="#443646"/>
<stop offset="1" stop-color="#2D2430"/>
</linearGradient>
<linearGradient id="paint16_linear_1192_191" x1="92.4701" y1="115.479" x2="94.4578" y2="118.952" gradientUnits="userSpaceOnUse">
<stop stop-color="#443646"/>
<stop offset="1" stop-color="#2D2430"/>
</linearGradient>
<linearGradient id="paint17_linear_1192_191" x1="97.2395" y1="134.055" x2="103.379" y2="134.055" gradientUnits="userSpaceOnUse">
<stop stop-color="#443646"/>
<stop offset="1" stop-color="#2D2430"/>
</linearGradient>
<linearGradient id="paint18_linear_1192_191" x1="97.2293" y1="113.618" x2="101.669" y2="113.618" gradientUnits="userSpaceOnUse">
<stop stop-color="#443646"/>
<stop offset="1" stop-color="#2D2430"/>
</linearGradient>
<linearGradient id="paint19_linear_1192_191" x1="95.1973" y1="114.165" x2="96.8058" y2="114.165" gradientUnits="userSpaceOnUse">
<stop stop-color="#443646"/>
<stop offset="1" stop-color="#2D2430"/>
</linearGradient>
<linearGradient id="paint20_linear_1192_191" x1="97.2509" y1="109.203" x2="101.138" y2="109.203" gradientUnits="userSpaceOnUse">
<stop stop-color="#443646"/>
<stop offset="1" stop-color="#2D2430"/>
</linearGradient>
<linearGradient id="paint21_linear_1192_191" x1="94.4142" y1="108.731" x2="96.4534" y2="108.731" gradientUnits="userSpaceOnUse">
<stop stop-color="#443646"/>
<stop offset="1" stop-color="#2D2430"/>
</linearGradient>
<linearGradient id="paint22_linear_1192_191" x1="97.2509" y1="103.881" x2="101.138" y2="103.881" gradientUnits="userSpaceOnUse">
<stop stop-color="#443646"/>
<stop offset="1" stop-color="#2D2430"/>
</linearGradient>
<linearGradient id="paint23_linear_1192_191" x1="168.288" y1="44.6447" x2="155.179" y2="67.4525" gradientUnits="userSpaceOnUse">
<stop offset="0.0640023" stop-color="#B98403"/>
<stop offset="0.0645455" stop-color="#CF902B"/>
<stop offset="0.6263" stop-color="#CF902B"/>
<stop offset="0.6267" stop-color="#C38D17"/>
<stop offset="0.9258" stop-color="#C38D17"/>
<stop offset="0.9262" stop-color="#BB7800"/>
</linearGradient>
<linearGradient id="paint24_linear_1192_191" x1="158.017" y1="57.4964" x2="156.635" y2="55.0732" gradientUnits="userSpaceOnUse">
<stop offset="0.2078" stop-color="#766F7A"/>
<stop offset="1" stop-color="#6A666D"/>
</linearGradient>
<clipPath id="clip0_1192_191">
<rect width="185" height="120" fill="white" transform="translate(19 36)"/>
</clipPath>
</defs>
</svg>
